<svg width="179" height="125" viewBox="0 0 179 125" fill="none" xmlns="http://www.w3.org/2000/svg">
<path d="M133 4C133 4 30.5639 4 29 4" stroke="#FF0000" stroke-width="7" stroke-miterlimit="3.8637"/>
<path d="M2.38735 123V109H4.54735V120.92H11.1073V123H2.38735ZM17.7494 123.2C16.6694 123.2 15.7094 122.973 14.8694 122.52C14.0427 122.053 13.3894 121.42 12.9094 120.62C12.4427 119.82 12.2094 118.9 12.2094 117.86C12.2094 117.033 12.3427 116.28 12.6094 115.6C12.876 114.92 13.2427 114.333 13.7094 113.84C14.1894 113.333 14.756 112.947 15.4094 112.68C16.076 112.4 16.796 112.26 17.5694 112.26C18.2494 112.26 18.8827 112.393 19.4694 112.66C20.056 112.913 20.5627 113.267 20.9894 113.72C21.4294 114.173 21.7627 114.713 21.9894 115.34C22.2294 115.953 22.3427 116.627 22.3294 117.36L22.3094 118.24H13.7294L13.2694 116.6H20.5294L20.2294 116.94V116.46C20.1894 116.02 20.0427 115.627 19.7894 115.28C19.536 114.933 19.216 114.66 18.8294 114.46C18.4427 114.26 18.0227 114.16 17.5694 114.16C16.8494 114.16 16.2427 114.3 15.7494 114.58C15.256 114.847 14.8827 115.247 14.6294 115.78C14.376 116.3 14.2494 116.947 14.2494 117.72C14.2494 118.453 14.4027 119.093 14.7094 119.64C15.016 120.173 15.4494 120.587 16.0094 120.88C16.5694 121.173 17.216 121.32 17.9494 121.32C18.4694 121.32 18.9494 121.233 19.3894 121.06C19.8427 120.887 20.3294 120.573 20.8494 120.12L21.8894 121.58C21.5694 121.9 21.176 122.18 20.7094 122.42C20.256 122.66 19.7694 122.853 19.2494 123C18.7427 123.133 18.2427 123.2 17.7494 123.2ZM27.4681 123.2C26.5881 123.2 25.7948 123.047 25.0881 122.74C24.3815 122.433 23.7948 121.98 23.3281 121.38L24.7281 120.18C25.1281 120.647 25.5615 120.987 26.0281 121.2C26.5081 121.4 27.0481 121.5 27.6481 121.5C27.8881 121.5 28.1081 121.473 28.3081 121.42C28.5215 121.353 28.7015 121.26 28.8481 121.14C29.0081 121.02 29.1281 120.88 29.2081 120.72C29.2881 120.547 29.3281 120.36 29.3281 120.16C29.3281 119.813 29.2015 119.533 28.9481 119.32C28.8148 119.227 28.6015 119.127 28.3081 119.02C28.0281 118.9 27.6615 118.78 27.2081 118.66C26.4348 118.46 25.8015 118.233 25.3081 117.98C24.8148 117.727 24.4348 117.44 24.1681 117.12C23.9681 116.867 23.8215 116.593 23.7281 116.3C23.6348 115.993 23.5881 115.66 23.5881 115.3C23.5881 114.713 23.7548 114.193 24.0881 113.74C24.4215 113.287 24.8681 112.933 25.4281 112.68C26.0015 112.413 26.6415 112.28 27.3481 112.28C27.8415 112.28 28.3281 112.347 28.8081 112.48C29.3015 112.613 29.7548 112.807 30.1681 113.06C30.5815 113.313 30.9281 113.613 31.2081 113.96L30.0281 115.26C29.7748 115.007 29.4948 114.787 29.1881 114.6C28.8948 114.4 28.5948 114.247 28.2881 114.14C27.9815 114.033 27.7015 113.98 27.4481 113.98C27.1681 113.98 26.9148 114.007 26.6881 114.06C26.4615 114.113 26.2681 114.193 26.1081 114.3C25.9615 114.407 25.8481 114.54 25.7681 114.7C25.6881 114.86 25.6481 115.04 25.6481 115.24C25.6615 115.413 25.7015 115.58 25.7681 115.74C25.8481 115.887 25.9548 116.013 26.0881 116.12C26.2348 116.227 26.4548 116.34 26.7481 116.46C27.0415 116.58 27.4148 116.693 27.8681 116.8C28.5348 116.973 29.0815 117.167 29.5081 117.38C29.9481 117.58 30.2948 117.813 30.5481 118.08C30.8148 118.333 31.0015 118.627 31.1081 118.96C31.2148 119.293 31.2681 119.667 31.2681 120.08C31.2681 120.68 31.0948 121.22 30.7481 121.7C30.4148 122.167 29.9615 122.533 29.3881 122.8C28.8148 123.067 28.1748 123.2 27.4681 123.2ZM36.4384 123.2C35.5584 123.2 34.7651 123.047 34.0584 122.74C33.3518 122.433 32.7651 121.98 32.2984 121.38L33.6984 120.18C34.0984 120.647 34.5318 120.987 34.9984 121.2C35.4784 121.4 36.0184 121.5 36.6184 121.5C36.8584 121.5 37.0784 121.473 37.2784 121.42C37.4918 121.353 37.6718 121.26 37.8184 121.14C37.9784 121.02 38.0984 120.88 38.1784 120.72C38.2584 120.547 38.2984 120.36 38.2984 120.16C38.2984 119.813 38.1718 119.533 37.9184 119.32C37.7851 119.227 37.5718 119.127 37.2784 119.02C36.9984 118.9 36.6318 118.78 36.1784 118.66C35.4051 118.46 34.7718 118.233 34.2784 117.98C33.7851 117.727 33.4051 117.44 33.1384 117.12C32.9384 116.867 32.7918 116.593 32.6984 116.3C32.6051 115.993 32.5584 115.66 32.5584 115.3C32.5584 114.713 32.7251 114.193 33.0584 113.74C33.3918 113.287 33.8384 112.933 34.3984 112.68C34.9718 112.413 35.6118 112.28 36.3184 112.28C36.8118 112.28 37.2984 112.347 37.7784 112.48C38.2718 112.613 38.7251 112.807 39.1384 113.06C39.5518 113.313 39.8984 113.613 40.1784 113.96L38.9984 115.26C38.7451 115.007 38.4651 114.787 38.1584 114.6C37.8651 114.4 37.5651 114.247 37.2584 114.14C36.9518 114.033 36.6718 113.98 36.4184 113.98C36.1384 113.98 35.8851 114.007 35.6584 114.06C35.4318 114.113 35.2384 114.193 35.0784 114.3C34.9318 114.407 34.8184 114.54 34.7384 114.7C34.6584 114.86 34.6184 115.04 34.6184 115.24C34.6318 115.413 34.6718 115.58 34.7384 115.74C34.8184 115.887 34.9251 116.013 35.0584 116.12C35.2051 116.227 35.4251 116.34 35.7184 116.46C36.0118 116.58 36.3851 116.693 36.8384 116.8C37.5051 116.973 38.0518 117.167 38.4784 117.38C38.9184 117.58 39.2651 117.813 39.5184 118.08C39.7851 118.333 39.9718 118.627 40.0784 118.96C40.1851 119.293 40.2384 119.667 40.2384 120.08C40.2384 120.68 40.0651 121.22 39.7184 121.7C39.3851 122.167 38.9318 122.533 38.3584 122.8C37.7851 123.067 37.1451 123.2 36.4384 123.2ZM48.2142 123V109.82H50.2742V123H48.2142ZM46.0342 114.5V112.5H52.7142V114.5H46.0342ZM53.99 123V108.2H56.05V114.66L55.69 114.9C55.8233 114.433 56.0833 114.007 56.47 113.62C56.8567 113.22 57.3167 112.9 57.85 112.66C58.3833 112.407 58.93 112.28 59.49 112.28C60.29 112.28 60.9567 112.44 61.49 112.76C62.0233 113.067 62.4233 113.54 62.69 114.18C62.9567 114.82 63.09 115.627 63.09 116.6V123H61.03V116.74C61.03 116.14 60.95 115.647 60.79 115.26C60.63 114.86 60.3833 114.573 60.05 114.4C59.7167 114.213 59.3033 114.133 58.81 114.16C58.41 114.16 58.0433 114.227 57.71 114.36C57.3767 114.48 57.0833 114.653 56.83 114.88C56.59 115.107 56.3967 115.373 56.25 115.68C56.1167 115.973 56.05 116.293 56.05 116.64V123H55.03C54.8567 123 54.6833 123 54.51 123C54.3367 123 54.1633 123 53.99 123ZM71.5045 123V116.16C71.5045 115.573 71.2912 115.1 70.8645 114.74C70.4512 114.367 69.9245 114.18 69.2845 114.18C68.6979 114.18 68.1645 114.3 67.6845 114.54C67.2179 114.78 66.7912 115.147 66.4045 115.64L65.0645 114.3C65.6912 113.62 66.3645 113.113 67.0845 112.78C67.8179 112.447 68.6045 112.28 69.4445 112.28C70.2445 112.28 70.9379 112.413 71.5245 112.68C72.1112 112.947 72.5645 113.34 72.8845 113.86C73.2045 114.367 73.3645 114.987 73.3645 115.72V123H71.5045ZM68.3645 123.2C67.6845 123.2 67.0779 123.067 66.5445 122.8C66.0112 122.533 65.5845 122.167 65.2645 121.7C64.9579 121.22 64.8045 120.66 64.8045 120.02C64.8045 119.46 64.9045 118.967 65.1045 118.54C65.3045 118.113 65.5979 117.76 65.9845 117.48C66.3845 117.2 66.8779 116.987 67.4645 116.84C68.0645 116.693 68.7512 116.62 69.5245 116.62H72.4445L72.2645 118.26H69.2645C68.8645 118.26 68.5045 118.3 68.1845 118.38C67.8779 118.447 67.6112 118.56 67.3845 118.72C67.1712 118.867 67.0112 119.047 66.9045 119.26C66.7979 119.46 66.7445 119.7 66.7445 119.98C66.7445 120.273 66.8179 120.533 66.9645 120.76C67.1112 120.973 67.3112 121.14 67.5645 121.26C67.8179 121.38 68.1112 121.44 68.4445 121.44C68.9245 121.44 69.3779 121.36 69.8045 121.2C70.2445 121.027 70.6312 120.793 70.9645 120.5C71.3112 120.207 71.5779 119.88 71.7645 119.52L72.2445 120.86C71.9645 121.327 71.6179 121.733 71.2045 122.08C70.7912 122.427 70.3445 122.7 69.8645 122.9C69.3845 123.1 68.8845 123.2 68.3645 123.2ZM75.3681 123V112.5H77.4281V114.66L77.0681 114.9C77.2015 114.433 77.4615 114.007 77.8481 113.62C78.2348 113.22 78.6948 112.9 79.2281 112.66C79.7615 112.407 80.3081 112.28 80.8681 112.28C81.6681 112.28 82.3348 112.44 82.8681 112.76C83.4015 113.067 83.8015 113.54 84.0681 114.18C84.3348 114.82 84.4681 115.627 84.4681 116.6V123H82.4081V116.74C82.4081 116.14 82.3281 115.647 82.1681 115.26C82.0081 114.86 81.7615 114.573 81.4281 114.4C81.0948 114.213 80.6815 114.133 80.1881 114.16C79.7881 114.16 79.4215 114.227 79.0881 114.36C78.7548 114.48 78.4615 114.653 78.2081 114.88C77.9681 115.107 77.7748 115.373 77.6281 115.68C77.4948 115.973 77.4281 116.293 77.4281 116.64V123H76.4081C76.2348 123 76.0615 123 75.8881 123C75.7148 123 75.5415 123 75.3681 123ZM94.5681 122.02V110.66L95.3081 111.22L92.5481 112.68L91.9681 110.8L95.7081 108.8H96.7481V122.02H94.5681ZM92.3481 123V120.92H99.0281V123H92.3481ZM105.688 123.2C104.621 123.2 103.701 122.907 102.928 122.32C102.168 121.733 101.581 120.907 101.168 119.84C100.755 118.76 100.548 117.48 100.548 116C100.548 114.52 100.755 113.247 101.168 112.18C101.581 111.1 102.168 110.267 102.928 109.68C103.701 109.093 104.621 108.8 105.688 108.8C106.755 108.8 107.675 109.093 108.448 109.68C109.221 110.267 109.815 111.1 110.228 112.18C110.641 113.247 110.848 114.52 110.848 116C110.848 117.48 110.641 118.76 110.228 119.84C109.815 120.907 109.221 121.733 108.448 122.32C107.675 122.907 106.755 123.2 105.688 123.2ZM105.688 121.24C106.661 121.24 107.415 120.787 107.948 119.88C108.481 118.96 108.748 117.667 108.748 116C108.748 114.333 108.481 113.047 107.948 112.14C107.415 111.22 106.661 110.76 105.688 110.76C104.715 110.76 103.961 111.22 103.428 112.14C102.895 113.047 102.628 114.333 102.628 116C102.628 117.667 102.895 118.96 103.428 119.88C103.961 120.787 104.715 121.24 105.688 121.24ZM114.497 119.72L114.397 117.48L119.417 112.5H122.197L114.497 119.72ZM112.617 123V108.2H114.677V123H112.617ZM119.697 123L115.737 118.38L117.197 117.04L122.337 123H119.697ZM131.829 123L127.389 112.5H129.609L132.809 120.36L132.429 120.54L135.849 112.5H137.969L133.309 123H131.829ZM139.594 123V112.5H141.654V123H139.594ZM140.594 110.18C140.154 110.18 139.814 110.067 139.574 109.84C139.334 109.613 139.214 109.293 139.214 108.88C139.214 108.493 139.334 108.18 139.574 107.94C139.827 107.7 140.167 107.58 140.594 107.58C141.034 107.58 141.374 107.693 141.614 107.92C141.854 108.147 141.974 108.467 141.974 108.88C141.974 109.267 141.847 109.58 141.594 109.82C141.354 110.06 141.021 110.18 140.594 110.18ZM149.12 123.2C148.04 123.2 147.08 122.973 146.24 122.52C145.414 122.053 144.76 121.42 144.28 120.62C143.814 119.82 143.58 118.9 143.58 117.86C143.58 117.033 143.714 116.28 143.98 115.6C144.247 114.92 144.614 114.333 145.08 113.84C145.56 113.333 146.127 112.947 146.78 112.68C147.447 112.4 148.167 112.26 148.94 112.26C149.62 112.26 150.254 112.393 150.84 112.66C151.427 112.913 151.934 113.267 152.36 113.72C152.8 114.173 153.134 114.713 153.36 115.34C153.6 115.953 153.714 116.627 153.7 117.36L153.68 118.24H145.1L144.64 116.6H151.9L151.6 116.94V116.46C151.56 116.02 151.414 115.627 151.16 115.28C150.907 114.933 150.587 114.66 150.2 114.46C149.814 114.26 149.394 114.16 148.94 114.16C148.22 114.16 147.614 114.3 147.12 114.58C146.627 114.847 146.254 115.247 146 115.78C145.747 116.3 145.62 116.947 145.62 117.72C145.62 118.453 145.774 119.093 146.08 119.64C146.387 120.173 146.82 120.587 147.38 120.88C147.94 121.173 148.587 121.32 149.32 121.32C149.84 121.32 150.32 121.233 150.76 121.06C151.214 120.887 151.7 120.573 152.22 120.12L153.26 121.58C152.94 121.9 152.547 122.18 152.08 122.42C151.627 122.66 151.14 122.853 150.62 123C150.114 123.133 149.614 123.2 149.12 123.2ZM157.724 123L154.144 112.5L156.224 112.48L158.784 120.34L158.324 120.3L161.104 114.16H162.344L165.144 120.32L164.604 120.36L167.184 112.5H169.264L165.724 123H164.304L161.384 116.32L161.844 116.38L159.124 123H157.724ZM173.942 123.2C173.062 123.2 172.269 123.047 171.562 122.74C170.856 122.433 170.269 121.98 169.802 121.38L171.202 120.18C171.602 120.647 172.036 120.987 172.502 121.2C172.982 121.4 173.522 121.5 174.122 121.5C174.362 121.5 174.582 121.473 174.782 121.42C174.996 121.353 175.176 121.26 175.322 121.14C175.482 121.02 175.602 120.88 175.682 120.72C175.762 120.547 175.802 120.36 175.802 120.16C175.802 119.813 175.676 119.533 175.422 119.32C175.289 119.227 175.076 119.127 174.782 119.02C174.502 118.9 174.136 118.78 173.682 118.66C172.909 118.46 172.276 118.233 171.782 117.98C171.289 117.727 170.909 117.44 170.642 117.12C170.442 116.867 170.296 116.593 170.202 116.3C170.109 115.993 170.062 115.66 170.062 115.3C170.062 114.713 170.229 114.193 170.562 113.74C170.896 113.287 171.342 112.933 171.902 112.68C172.476 112.413 173.116 112.28 173.822 112.28C174.316 112.28 174.802 112.347 175.282 112.48C175.776 112.613 176.229 112.807 176.642 113.06C177.056 113.313 177.402 113.613 177.682 113.96L176.502 115.26C176.249 115.007 175.969 114.787 175.662 114.6C175.369 114.4 175.069 114.247 174.762 114.14C174.456 114.033 174.176 113.98 173.922 113.98C173.642 113.98 173.389 114.007 173.162 114.06C172.936 114.113 172.742 114.193 172.582 114.3C172.436 114.407 172.322 114.54 172.242 114.7C172.162 114.86 172.122 115.04 172.122 115.24C172.136 115.413 172.176 115.58 172.242 115.74C172.322 115.887 172.429 116.013 172.562 116.12C172.709 116.227 172.929 116.34 173.222 116.46C173.516 116.58 173.889 116.693 174.342 116.8C175.009 116.973 175.556 117.167 175.982 117.38C176.422 117.58 176.769 117.813 177.022 118.08C177.289 118.333 177.476 118.627 177.582 118.96C177.689 119.293 177.742 119.667 177.742 120.08C177.742 120.68 177.569 121.22 177.222 121.7C176.889 122.167 176.436 122.533 175.862 122.8C175.289 123.067 174.649 123.2 173.942 123.2Z" fill="#FF0000"/>
<path d="M65.1076 14.5015C65.3829 14.4803 65.6233 14.6863 65.6445 14.9617L65.9896 19.4484C66.0108 19.7237 65.8048 19.9641 65.5294 19.9853C65.2541 20.0065 65.0137 19.8004 64.9926 19.5251L64.6858 15.5369L60.6976 15.8437C60.4222 15.8648 60.1819 15.6588 60.1607 15.3835C60.1395 15.1082 60.3455 14.8678 60.6209 14.8466L65.1076 14.5015ZM58.2428 103.296C47.2157 88.2591 41.2639 74.8951 41.8965 60.8527C42.5288 46.8149 49.7361 32.2099 64.7663 14.6746L65.5256 15.3254C50.5558 32.7902 43.5131 47.1853 42.8954 60.8977C42.278 74.6054 48.0762 87.7415 59.0492 102.705L58.2428 103.296Z" fill="#FF0000"/>
<path d="M130.509 4L26.5085 4" stroke="black"/>
</svg>
