<svg width="36" height="36" viewBox="0 0 36 36" fill="none" xmlns="http://www.w3.org/2000/svg">
<mask id="mask0_699_255" style="mask-type:luminance" maskUnits="userSpaceOnUse" x="0" y="0" width="36" height="36">
<path d="M18.0001 34.6667C20.1891 34.6694 22.3572 34.2395 24.3796 33.4017C26.4021 32.564 28.2391 31.3349 29.7851 29.785C31.3349 28.239 32.564 26.402 33.4018 24.3796C34.2395 22.3571 34.6694 20.1891 34.6667 18C34.6694 15.8109 34.2395 13.6428 33.4018 11.6204C32.564 9.59795 31.3349 7.76097 29.7851 6.21499C28.2391 4.66513 26.4021 3.43601 24.3796 2.59825C22.3572 1.7605 20.1891 1.33063 18.0001 1.33333C15.811 1.33063 13.6429 1.7605 11.6205 2.59825C9.59801 3.43601 7.76103 4.66513 6.21505 6.21499C4.66519 7.76097 3.43607 9.59795 2.59832 11.6204C1.76056 13.6428 1.33069 15.8109 1.33339 18C1.33069 20.1891 1.76056 22.3571 2.59832 24.3796C3.43607 26.402 4.66519 28.239 6.21505 29.785C7.76103 31.3349 9.59801 32.564 11.6205 33.4017C13.6429 34.2395 15.811 34.6694 18.0001 34.6667Z" fill="white" stroke="white" stroke-width="2" stroke-linejoin="round"/>
<path d="M11.3334 18L16.3334 23L26.3334 13" stroke="black" stroke-width="2" stroke-linecap="round" stroke-linejoin="round"/>
</mask>
<g mask="url(#mask0_699_255)">
<path d="M-2 -2H38V38H-2V-2Z" fill="#02C002"/>
</g>
</svg>
