<svg width="40" height="40" viewBox="0 0 40 40" fill="none" xmlns="http://www.w3.org/2000/svg">
<path fill-rule="evenodd" clip-rule="evenodd" d="M36.6667 20C36.6667 29.205 29.205 36.6666 20 36.6666C10.795 36.6666 3.33337 29.205 3.33337 20C3.33337 10.795 10.795 3.33331 20 3.33331C29.205 3.33331 36.6667 10.795 36.6667 20ZM13.5184 26.4816C13.3621 26.3254 13.2744 26.1134 13.2744 25.8925C13.2744 25.6715 13.3621 25.4596 13.5184 25.3033L18.8217 20L13.5184 14.6966C13.3666 14.5395 13.2826 14.329 13.2845 14.1105C13.2864 13.892 13.374 13.683 13.5285 13.5285C13.683 13.374 13.892 13.2863 14.1105 13.2844C14.329 13.2825 14.5395 13.3665 14.6967 13.5183L20 18.8216L25.3034 13.5183C25.4605 13.3665 25.671 13.2825 25.8895 13.2844C26.108 13.2863 26.317 13.374 26.4716 13.5285C26.6261 13.683 26.7137 13.892 26.7156 14.1105C26.7175 14.329 26.6335 14.5395 26.4817 14.6966L21.1784 20L26.4817 25.3033C26.6335 25.4605 26.7175 25.671 26.7156 25.8895C26.7137 26.108 26.6261 26.317 26.4716 26.4715C26.317 26.626 26.108 26.7136 25.8895 26.7155C25.671 26.7174 25.4605 26.6334 25.3034 26.4816L20 21.1783L14.6967 26.4816C14.5404 26.6379 14.3285 26.7256 14.1075 26.7256C13.8866 26.7256 13.6746 26.6379 13.5184 26.4816Z" fill="#FF0000"/>
<path fill-rule="evenodd" clip-rule="evenodd" d="M36.6667 20C36.6667 29.205 29.205 36.6666 20 36.6666C10.795 36.6666 3.33337 29.205 3.33337 20C3.33337 10.795 10.795 3.33331 20 3.33331C29.205 3.33331 36.6667 10.795 36.6667 20ZM13.5184 26.4816C13.3621 26.3254 13.2744 26.1134 13.2744 25.8925C13.2744 25.6715 13.3621 25.4596 13.5184 25.3033L18.8217 20L13.5184 14.6966C13.3666 14.5395 13.2826 14.329 13.2845 14.1105C13.2864 13.892 13.374 13.683 13.5285 13.5285C13.683 13.374 13.892 13.2863 14.1105 13.2844C14.329 13.2825 14.5395 13.3665 14.6967 13.5183L20 18.8216L25.3034 13.5183C25.4605 13.3665 25.671 13.2825 25.8895 13.2844C26.108 13.2863 26.317 13.374 26.4716 13.5285C26.6261 13.683 26.7137 13.892 26.7156 14.1105C26.7175 14.329 26.6335 14.5395 26.4817 14.6966L21.1784 20L26.4817 25.3033C26.6335 25.4605 26.7175 25.671 26.7156 25.8895C26.7137 26.108 26.6261 26.317 26.4716 26.4715C26.317 26.626 26.108 26.7136 25.8895 26.7155C25.671 26.7174 25.4605 26.6334 25.3034 26.4816L20 21.1783L14.6967 26.4816C14.5404 26.6379 14.3285 26.7256 14.1075 26.7256C13.8866 26.7256 13.6746 26.6379 13.5184 26.4816Z" fill="#FF0000"/>
</svg>
