<svg width="156" height="154" viewBox="0 0 156 154" fill="none" xmlns="http://www.w3.org/2000/svg">
<path d="M0 21L35 41.2073L35 0.79274L0 21ZM31.4983 24.5C31.5775 24.5 31.6569 24.5 31.7363 24.5C31.8157 24.5 31.8952 24.5 31.9748 24.5C32.0544 24.5 32.1341 24.5 32.2139 24.5C32.2937 24.5 32.3735 24.5 32.4535 24.5C32.5335 24.5 32.6135 24.5 32.6937 24.5C32.7739 24.5 32.8541 24.5 32.9344 24.5C33.0148 24.5 33.0952 24.5 33.1757 24.5C33.2562 24.5 33.3369 24.5 33.4176 24.5C33.4983 24.5 33.5791 24.5 33.6599 24.5C33.7408 24.5 33.8218 24.5 33.9028 24.5C33.9839 24.5 34.065 24.5 34.1463 24.5C34.2275 24.5 34.3088 24.5 34.3902 24.5C34.4717 24.5 34.5532 24.5 34.6347 24.5C34.7163 24.5 34.798 24.5 34.8797 24.5C34.9615 24.5 35.0433 24.5 35.1253 24.5C35.2072 24.5 35.2892 24.5 35.3713 24.5C35.4534 24.5 35.5356 24.5 35.6178 24.5C35.7001 24.5 35.7825 24.5 35.8649 24.5C35.9473 24.5 36.0298 24.5 36.1124 24.5C36.195 24.5 36.2777 24.5 36.3605 24.5C36.4432 24.5 36.5261 24.5 36.609 24.5C36.6919 24.5 36.7749 24.5 36.858 24.5C36.9411 24.5 37.0243 24.5 37.1075 24.5C37.1908 24.5 37.2741 24.5 37.3575 24.5C37.4409 24.5 37.5244 24.5 37.6079 24.5C37.6915 24.5 37.7752 24.5 37.8589 24.5C37.9426 24.5 38.0264 24.5 38.1103 24.5C38.1941 24.5 38.2781 24.5 38.3621 24.5C38.4461 24.5 38.5303 24.5 38.6144 24.5C38.6986 24.5 38.7829 24.5 38.8672 24.5C38.9515 24.5 39.0359 24.5 39.1204 24.5C39.2049 24.5 39.2895 24.5 39.3741 24.5C39.4587 24.5 39.5434 24.5 39.6282 24.5C39.713 24.5 39.7978 24.5 39.8828 24.5C39.9677 24.5 40.0527 24.5 40.1378 24.5C40.2228 24.5 40.308 24.5 40.3932 24.5C40.4784 24.5 40.5637 24.5 40.649 24.5C40.7344 24.5 40.8198 24.5 40.9053 24.5C40.9908 24.5 41.0764 24.5 41.162 24.5C41.2476 24.5 41.3333 24.5 41.4191 24.5C41.5049 24.5 41.5907 24.5 41.6766 24.5C41.7625 24.5 41.8485 24.5 41.9345 24.5C42.0206 24.5 42.1067 24.5 42.1929 24.5C42.279 24.5 42.3653 24.5 42.4516 24.5C42.5379 24.5 42.6243 24.5 42.7107 24.5C42.7972 24.5 42.8837 24.5 42.9702 24.5C43.0568 24.5 43.1434 24.5 43.2301 24.5C43.3168 24.5 43.4036 24.5 43.4904 24.5C43.5773 24.5 43.6642 24.5 43.7511 24.5C43.8381 24.5 43.9251 24.5 44.0121 24.5C44.0992 24.5 44.1864 24.5 44.2736 24.5C44.3608 24.5 44.448 24.5 44.5353 24.5C44.6227 24.5 44.71 24.5 44.7975 24.5C44.8849 24.5 44.9724 24.5 45.06 24.5C45.1476 24.5 45.2352 24.5 45.3229 24.5C45.4105 24.5 45.4983 24.5 45.5861 24.5C45.6739 24.5 45.7617 24.5 45.8496 24.5C45.9376 24.5 46.0255 24.5 46.1136 24.5C46.2016 24.5 46.2897 24.5 46.3778 24.5C46.4659 24.5 46.5541 24.5 46.6424 24.5C46.7306 24.5 46.8189 24.5 46.9073 24.5C46.9957 24.5 47.0841 24.5 47.1725 24.5C47.261 24.5 47.3495 24.5 47.4381 24.5C47.5267 24.5 47.6153 24.5 47.704 24.5C47.7927 24.5 47.8814 24.5 47.9702 24.5C48.059 24.5 48.1478 24.5 48.2367 24.5C48.3256 24.5 48.4146 24.5 48.5035 24.5C48.5925 24.5 48.6816 24.5 48.7707 24.5C48.8598 24.5 48.9489 24.5 49.0381 24.5C49.1273 24.5 49.2165 24.5 49.3058 24.5C49.3951 24.5 49.4845 24.5 49.5738 24.5C49.6632 24.5 49.7527 24.5 49.8422 24.5C49.9316 24.5 50.0212 24.5 50.1107 24.5C50.2003 24.5 50.2899 24.5 50.3796 24.5C50.4693 24.5 50.559 24.5 50.6488 24.5C50.7385 24.5 50.8283 24.5 50.9182 24.5C51.008 24.5 51.0979 24.5 51.1879 24.5C51.2778 24.5 51.3678 24.5 51.4578 24.5C51.5478 24.5 51.6379 24.5 51.728 24.5C51.8181 24.5 51.9083 24.5 51.9985 24.5C52.0887 24.5 52.1789 24.5 52.2692 24.5C52.3595 24.5 52.4498 24.5 52.5402 24.5C52.6306 24.5 52.721 24.5 52.8114 24.5C52.9019 24.5 52.9923 24.5 53.0829 24.5C53.1734 24.5 53.264 24.5 53.3546 24.5C53.4452 24.5 53.5358 24.5 53.6265 24.5C53.7172 24.5 53.8079 24.5 53.8986 24.5C53.9894 24.5 54.0802 24.5 54.171 24.5C54.2618 24.5 54.3527 24.5 54.4436 24.5C54.5345 24.5 54.6255 24.5 54.7164 24.5C54.8074 24.5 54.8984 24.5 54.9895 24.5C55.0805 24.5 55.1716 24.5 55.2627 24.5C55.3538 24.5 55.445 24.5 55.5361 24.5C55.6273 24.5 55.7185 24.5 55.8098 24.5C55.901 24.5 55.9923 24.5 56.0836 24.5C56.1749 24.5 56.2663 24.5 56.3577 24.5C56.449 24.5 56.5404 24.5 56.6319 24.5C56.7233 24.5 56.8148 24.5 56.9063 24.5C56.9978 24.5 57.0893 24.5 57.1809 24.5C57.2724 24.5 57.364 24.5 57.4556 24.5C57.5472 24.5 57.6389 24.5 57.7306 24.5C57.8222 24.5 57.9139 24.5 58.0057 24.5C58.0974 24.5 58.1892 24.5 58.2809 24.5C58.3727 24.5 58.4645 24.5 58.5564 24.5C58.6482 24.5 58.7401 24.5 58.832 24.5C58.9239 24.5 59.0158 24.5 59.1077 24.5C59.1996 24.5 59.2916 24.5 59.3836 24.5C59.4756 24.5 59.5676 24.5 59.6596 24.5C59.7517 24.5 59.8437 24.5 59.9358 24.5C60.0279 24.5 60.12 24.5 60.2121 24.5C60.3042 24.5 60.3964 24.5 60.4886 24.5C60.5807 24.5 60.6729 24.5 60.7651 24.5C60.8574 24.5 60.9496 24.5 61.0418 24.5C61.1341 24.5 61.2264 24.5 61.3187 24.5C61.411 24.5 61.5033 24.5 61.5956 24.5C61.6879 24.5 61.7803 24.5 61.8727 24.5C61.965 24.5 62.0574 24.5 62.1498 24.5C62.2422 24.5 62.3347 24.5 62.4271 24.5C62.5195 24.5 62.612 24.5 62.7045 24.5C62.7969 24.5 62.8894 24.5 62.9819 24.5C63.0744 24.5 63.167 24.5 63.2595 24.5C63.352 24.5 63.4446 24.5 63.5371 24.5C63.6297 24.5 63.7223 24.5 63.8149 24.5C63.9075 24.5 64.0001 24.5 64.0927 24.5C64.1853 24.5 64.2779 24.5 64.3706 24.5C64.4632 24.5 64.5559 24.5 64.6486 24.5C64.7412 24.5 64.8339 24.5 64.9266 24.5C65.0193 24.5 65.112 24.5 65.2047 24.5C65.2974 24.5 65.3901 24.5 65.4828 24.5C65.5756 24.5 65.6683 24.5 65.7611 24.5C65.8538 24.5 65.9466 24.5 66.0393 24.5C66.1321 24.5 66.2249 24.5 66.3177 24.5C66.4105 24.5 66.5032 24.5 66.596 24.5C66.6888 24.5 66.7816 24.5 66.8745 24.5C66.9673 24.5 67.0601 24.5 67.1529 24.5C67.2457 24.5 67.3386 24.5 67.4314 24.5C67.5242 24.5 67.6171 24.5 67.7099 24.5C67.8027 24.5 67.8956 24.5 67.9884 24.5C68.0813 24.5 68.1741 24.5 68.267 24.5C68.3599 24.5 68.4527 24.5 68.5456 24.5C68.6384 24.5 68.7313 24.5 68.8242 24.5C68.917 24.5 69.0099 24.5 69.1028 24.5C69.1956 24.5 69.2885 24.5 69.3814 24.5C69.4743 24.5 69.5671 24.5 69.66 24.5C69.7529 24.5 69.8457 24.5 69.9386 24.5C70.0315 24.5 70.1243 24.5 70.2172 24.5C70.3101 24.5 70.4029 24.5 70.4958 24.5C70.5886 24.5 70.6815 24.5 70.7744 24.5C70.8672 24.5 70.9601 24.5 71.0529 24.5C71.1458 24.5 71.2386 24.5 71.3315 24.5C71.4243 24.5 71.5171 24.5 71.61 24.5C71.7028 24.5 71.7956 24.5 71.8885 24.5C71.9813 24.5 72.0741 24.5 72.1669 24.5C72.2597 24.5 72.3525 24.5 72.4453 24.5C72.5381 24.5 72.6309 24.5 72.7237 24.5C72.8165 24.5 72.9092 24.5 73.002 24.5C73.0948 24.5 73.1875 24.5 73.2803 24.5C73.373 24.5 73.4658 24.5 73.5585 24.5C73.6512 24.5 73.7439 24.5 73.8366 24.5C73.9294 24.5 74.0221 24.5 74.1147 24.5C74.2074 24.5 74.3001 24.5 74.3928 24.5C74.4854 24.5 74.5781 24.5 74.6707 24.5C74.7634 24.5 74.856 24.5 74.9486 24.5C75.0413 24.5 75.1339 24.5 75.2264 24.5C75.319 24.5 75.4116 24.5 75.5042 24.5C75.5967 24.5 75.6893 24.5 75.7818 24.5C75.8744 24.5 75.9669 24.5 76.0594 24.5C76.1519 24.5 76.2444 24.5 76.3368 24.5C76.4293 24.5 76.5218 24.5 76.6142 24.5C76.7066 24.5 76.799 24.5 76.8915 24.5C76.9839 24.5 77.0762 24.5 77.1686 24.5C77.261 24.5 77.3533 24.5 77.4457 24.5C77.538 24.5 77.6303 24.5 77.7226 24.5C77.8149 24.5 77.9072 24.5 77.9994 24.5C78.0917 24.5 78.1839 24.5 78.2761 24.5C78.3683 24.5 78.4605 24.5 78.5527 24.5C78.6448 24.5 78.737 24.5 78.8291 24.5C78.9212 24.5 79.0133 24.5 79.1054 24.5C79.1975 24.5 79.2896 24.5 79.3816 24.5C79.4736 24.5 79.5656 24.5 79.6576 24.5C79.7496 24.5 79.8416 24.5 79.9335 24.5C80.0254 24.5 80.1173 24.5 80.2092 24.5C80.3011 24.5 80.393 24.5 80.4848 24.5C80.5766 24.5 80.6684 24.5 80.7602 24.5C80.852 24.5 80.9438 24.5 81.0355 24.5C81.1272 24.5 81.2189 24.5 81.3106 24.5C81.4023 24.5 81.4939 24.5 81.5855 24.5C81.6771 24.5 81.7687 24.5 81.8603 24.5C81.9518 24.5 82.0433 24.5 82.1348 24.5C82.2263 24.5 82.3178 24.5 82.4092 24.5C82.5007 24.5 82.5921 24.5 82.6834 24.5C82.7748 24.5 82.8661 24.5 82.9575 24.5C83.0488 24.5 83.14 24.5 83.2313 24.5C83.3225 24.5 83.4137 24.5 83.5049 24.5C83.5961 24.5 83.6872 24.5 83.7783 24.5C83.8695 24.5 83.9605 24.5 84.0516 24.5C84.1426 24.5 84.2336 24.5 84.3246 24.5C84.4156 24.5 84.5065 24.5 84.5974 24.5C84.6883 24.5 84.7792 24.5 84.87 24.5C84.9608 24.5 85.0516 24.5 85.1423 24.5C85.2331 24.5 85.3238 24.5 85.4145 24.5C85.5051 24.5 85.5958 24.5 85.6864 24.5C85.777 24.5 85.8675 24.5 85.9581 24.5C86.0486 24.5 86.1391 24.5 86.2295 24.5C86.3199 24.5 86.4103 24.5 86.5007 24.5C86.5911 24.5 86.6814 24.5 86.7717 24.5C86.8619 24.5 86.9522 24.5 87.0424 24.5C87.1326 24.5 87.2227 24.5 87.3128 24.5C87.4029 24.5 87.493 24.5 87.583 24.5C87.673 24.5 87.763 24.5 87.853 24.5C87.9429 24.5 88.0328 24.5 88.1226 24.5C88.2125 24.5 88.3023 24.5 88.392 24.5C88.4818 24.5 88.5715 24.5 88.6612 24.5C88.7508 24.5 88.8404 24.5 88.93 24.5C89.0196 24.5 89.1091 24.5 89.1986 24.5C89.2881 24.5 89.3775 24.5 89.4669 24.5C89.5563 24.5 89.6456 24.5 89.7349 24.5C89.8242 24.5 89.9134 24.5 90.0026 24.5C90.0918 24.5 90.1809 24.5 90.27 24.5C90.3591 24.5 90.4481 24.5 90.5371 24.5C90.6261 24.5 90.715 24.5 90.8039 24.5C90.8928 24.5 90.9816 24.5 91.0704 24.5C91.1592 24.5 91.2479 24.5 91.3366 24.5C91.4253 24.5 91.5139 24.5 91.6025 24.5C91.691 24.5 91.7795 24.5 91.868 24.5C91.9565 24.5 92.0449 24.5 92.1332 24.5C92.2216 24.5 92.3099 24.5 92.3981 24.5C92.4864 24.5 92.5746 24.5 92.6627 24.5C92.7508 24.5 92.8389 24.5 92.9269 24.5C93.0149 24.5 93.1029 24.5 93.1908 24.5C93.2787 24.5 93.3666 24.5 93.4543 24.5C93.5421 24.5 93.6299 24.5 93.7175 24.5C93.8052 24.5 93.8928 24.5 93.9804 24.5C94.0679 24.5 94.1554 24.5 94.2429 24.5C94.3303 24.5 94.4177 24.5 94.505 24.5C94.5923 24.5 94.6796 24.5 94.7668 24.5C94.854 24.5 94.9411 24.5 95.0282 24.5C95.1152 24.5 95.2022 24.5 95.2892 24.5C95.3761 24.5 95.463 24.5 95.5498 24.5C95.6366 24.5 95.7234 24.5 95.8101 24.5C95.8968 24.5 95.9834 24.5 96.07 24.5C96.1565 24.5 96.243 24.5 96.3295 24.5C96.4159 24.5 96.5023 24.5 96.5886 24.5C96.6749 24.5 96.7611 24.5 96.8473 24.5C96.9334 24.5 97.0195 24.5 97.1056 24.5C97.1916 24.5 97.2776 24.5 97.3635 24.5C97.4494 24.5 97.5352 24.5 97.621 24.5C97.7067 24.5 97.7924 24.5 97.878 24.5C97.9637 24.5 98.0492 24.5 98.1347 24.5C98.2202 24.5 98.3056 24.5 98.391 24.5C98.4763 24.5 98.5616 24.5 98.6468 24.5C98.732 24.5 98.8171 24.5 98.9022 24.5C98.9872 24.5 99.0722 24.5 99.1571 24.5C99.242 24.5 99.3269 24.5 99.4117 24.5C99.4964 24.5 99.5811 24.5 99.6657 24.5C99.7504 24.5 99.8349 24.5 99.9194 24.5C100.004 24.5 100.088 24.5 100.173 24.5C100.257 24.5 100.341 24.5 100.425 24.5C100.509 24.5 100.594 24.5 100.678 24.5C100.762 24.5 100.846 24.5 100.929 24.5C101.013 24.5 101.097 24.5 101.181 24.5C101.265 24.5 101.348 24.5 101.432 24.5C101.515 24.5 101.599 24.5 101.682 24.5C101.766 24.5 101.849 24.5 101.932 24.5C102.015 24.5 102.098 24.5 102.182 24.5C102.265 24.5 102.348 24.5 102.431 24.5C102.513 24.5 102.596 24.5 102.679 24.5C102.762 24.5 102.844 24.5 102.927 24.5C103.01 24.5 103.092 24.5 103.175 24.5C103.257 24.5 103.339 24.5 103.422 24.5C103.504 24.5 103.586 24.5 103.668 24.5C103.75 24.5 103.832 24.5 103.914 24.5C103.996 24.5 104.078 24.5 104.16 24.5C104.241 24.5 104.323 24.5 104.405 24.5C104.486 24.5 104.568 24.5 104.649 24.5C104.73 24.5 104.812 24.5 104.893 24.5C104.974 24.5 105.055 24.5 105.136 24.5C105.217 24.5 105.298 24.5 105.379 24.5C105.46 24.5 105.541 24.5 105.622 24.5C105.702 24.5 105.783 24.5 105.863 24.5C105.944 24.5 106.024 24.5 106.105 24.5C106.185 24.5 106.265 24.5 106.345 24.5C106.425 24.5 106.506 24.5 106.585 24.5C106.665 24.5 106.745 24.5 106.825 24.5C106.905 24.5 106.985 24.5 107.064 24.5C107.144 24.5 107.223 24.5 107.303 24.5C107.382 24.5 107.461 24.5 107.541 24.5C107.62 24.5 107.699 24.5 107.778 24.5C107.857 24.5 107.936 24.5 108.015 24.5C108.093 24.5 108.172 24.5 108.251 24.5C108.329 24.5 108.408 24.5 108.486 24.5C108.565 24.5 108.643 24.5 108.721 24.5C108.8 24.5 108.878 24.5 108.956 24.5C109.034 24.5 109.112 24.5 109.19 24.5C109.268 24.5 109.345 24.5 109.423 24.5C109.501 24.5 109.578 24.5 109.656 24.5C109.733 24.5 109.81 24.5 109.888 24.5C109.965 24.5 110.042 24.5 110.119 24.5C110.196 24.5 110.273 24.5 110.35 24.5C110.427 24.5 110.503 24.5 110.58 24.5C110.657 24.5 110.733 24.5 110.81 24.5C110.886 24.5 110.962 24.5 111.038 24.5C111.115 24.5 111.191 24.5 111.267 24.5C111.343 24.5 111.419 24.5 111.494 24.5C111.57 24.5 111.646 24.5 111.721 24.5C111.797 24.5 111.872 24.5 111.948 24.5C112.023 24.5 112.098 24.5 112.174 24.5C112.249 24.5 112.324 24.5 112.399 24.5C112.474 24.5 112.548 24.5 112.623 24.5C112.698 24.5 112.772 24.5 112.847 24.5C112.921 24.5 112.996 24.5 113.07 24.5C113.144 24.5 113.218 24.5 113.292 24.5C113.366 24.5 113.44 24.5 113.514 24.5C113.588 24.5 113.662 24.5 113.735 24.5C113.809 24.5 113.882 24.5 113.956 24.5C114.029 24.5 114.102 24.5 114.175 24.5C114.249 24.5 114.322 24.5 114.395 24.5C114.467 24.5 114.54 24.5 114.613 24.5C114.686 24.5 114.758 24.5 114.831 24.5C114.903 24.5 114.975 24.5 115.048 24.5C115.12 24.5 115.192 24.5 115.264 24.5C115.336 24.5 115.408 24.5 115.479 24.5C115.551 24.5 115.623 24.5 115.694 24.5C115.766 24.5 115.837 24.5 115.908 24.5C115.98 24.5 116.051 24.5 116.122 24.5C116.193 24.5 116.264 24.5 116.334 24.5C116.405 24.5 116.476 24.5 116.546 24.5C116.617 24.5 116.687 24.5 116.758 24.5C116.828 24.5 116.898 24.5 116.968 24.5C117.038 24.5 117.108 24.5 117.178 24.5C117.248 24.5 117.317 24.5 117.387 24.5C117.457 24.5 117.526 24.5 117.595 24.5C117.665 24.5 117.734 24.5 117.803 24.5C117.872 24.5 117.941 24.5 118.01 24.5C118.078 24.5 118.147 24.5 118.216 24.5C118.284 24.5 118.353 24.5 118.421 24.5C118.489 24.5 118.557 24.5 118.625 24.5C118.693 24.5 118.761 24.5 118.829 24.5C118.897 24.5 118.964 24.5 119.032 24.5C119.099 24.5 119.167 24.5 119.234 24.5C119.301 24.5 119.369 24.5 119.436 24.5C119.503 24.5 119.569 24.5 119.636 24.5C119.703 24.5 119.769 24.5 119.836 24.5C119.902 24.5 119.969 24.5 120.035 24.5C120.101 24.5 120.167 24.5 120.233 24.5C120.299 24.5 120.365 24.5 120.431 24.5C120.496 24.5 120.562 24.5 120.627 24.5C120.693 24.5 120.758 24.5 120.823 24.5C120.888 24.5 120.953 24.5 121.018 24.5C121.083 24.5 121.148 24.5 121.212 24.5C121.277 24.5 121.341 24.5 121.405 24.5C121.47 24.5 121.534 24.5 121.598 24.5C121.662 24.5 121.726 24.5 121.79 24.5C121.853 24.5 121.917 24.5 121.981 24.5C122.044 24.5 122.107 24.5 122.171 24.5C122.234 24.5 122.297 24.5 122.36 24.5C122.423 24.5 122.485 24.5 122.548 24.5C122.611 24.5 122.673 24.5 122.736 24.5C122.798 24.5 122.86 24.5 122.922 24.5C122.984 24.5 123.046 24.5 123.108 24.5C123.17 24.5 123.231 24.5 123.293 24.5C123.354 24.5 123.416 24.5 123.477 24.5C123.538 24.5 123.599 24.5 123.66 24.5C123.721 24.5 123.782 24.5 123.842 24.5C123.903 24.5 123.964 24.5 124.024 24.5C124.084 24.5 124.144 24.5 124.204 24.5C124.264 24.5 124.324 24.5 124.384 24.5C124.444 24.5 124.503 24.5 124.563 24.5C124.622 24.5 124.682 24.5 124.741 24.5C124.8 24.5 124.859 24.5 124.918 24.5C124.977 24.5 125.035 24.5 125.094 24.5C125.152 24.5 125.211 24.5 125.269 24.5C125.327 24.5 125.385 24.5 125.443 24.5C125.501 24.5 125.559 24.5 125.617 24.5C125.674 24.5 125.732 24.5 125.789 24.5C125.846 24.5 125.903 24.5 125.961 24.5C126.018 24.5 126.074 24.5 126.131 24.5C126.188 24.5 126.244 24.5 126.301 24.5C126.357 24.5 126.413 24.5 126.469 24.5C126.526 24.5 126.581 24.5 126.637 24.5C126.693 24.5 126.749 24.5 126.804 24.5C126.86 24.5 126.915 24.5 126.97 24.5C127.025 24.5 127.08 24.5 127.135 24.5C127.19 24.5 127.244 24.5 127.299 24.5C127.353 24.5 127.408 24.5 127.462 24.5C127.516 24.5 127.57 24.5 127.624 24.5C127.678 24.5 127.732 24.5 127.785 24.5C127.839 24.5 127.892 24.5 127.945 24.5C127.999 24.5 128.052 24.5 128.105 24.5C128.157 24.5 128.21 24.5 128.263 24.5C128.315 24.5 128.368 24.5 128.42 24.5C128.472 24.5 128.524 24.5 128.576 24.5C128.628 24.5 128.68 24.5 128.731 24.5C128.783 24.5 128.834 24.5 128.886 24.5C128.937 24.5 128.988 24.5 129.039 24.5C129.09 24.5 129.141 24.5 129.191 24.5C129.242 24.5 129.292 24.5 129.342 24.5C129.393 24.5 129.443 24.5 129.493 24.5C129.543 24.5 129.592 24.5 129.642 24.5C129.691 24.5 129.741 24.5 129.79 24.5C129.839 24.5 129.888 24.5 129.937 24.5C129.986 24.5 130.035 24.5 130.083 24.5C130.132 24.5 130.18 24.5 130.229 24.5C130.277 24.5 130.325 24.5 130.373 24.5C130.421 24.5 130.468 24.5 130.516 24.5C130.563 24.5 130.611 24.5 130.658 24.5C130.705 24.5 130.752 24.5 130.799 24.5C130.846 24.5 130.892 24.5 130.939 24.5C130.985 24.5 131.032 24.5 131.078 24.5C131.124 24.5 131.17 24.5 131.215 24.5C131.261 24.5 131.307 24.5 131.352 24.5C131.398 24.5 131.443 24.5 131.488 24.5C131.533 24.5 131.578 24.5 131.623 24.5C131.667 24.5 131.712 24.5 131.756 24.5C131.8 24.5 131.845 24.5 131.889 24.5C131.933 24.5 131.976 24.5 132.02 24.5C132.064 24.5 132.107 24.5 132.15 24.5C132.194 24.5 132.237 24.5 132.28 24.5C132.322 24.5 132.365 24.5 132.408 24.5C132.45 24.5 132.493 24.5 132.535 24.5C132.577 24.5 132.619 24.5 132.661 24.5C132.702 24.5 132.744 24.5 132.786 24.5C132.827 24.5 132.868 24.5 132.909 24.5C132.95 24.5 132.991 24.5 133.032 24.5C133.073 24.5 133.113 24.5 133.153 24.5C133.194 24.5 133.234 24.5 133.274 24.5C133.314 24.5 133.353 24.5 133.393 24.5C133.433 24.5 133.472 24.5 133.511 24.5C133.55 24.5 133.589 24.5 133.628 24.5C133.667 24.5 133.706 24.5 133.744 24.5C133.782 24.5 133.821 24.5 133.859 24.5C133.897 24.5 133.935 24.5 133.972 24.5C134.01 24.5 134.047 24.5 134.085 24.5C134.122 24.5 134.159 24.5 134.196 24.5C134.233 24.5 134.27 24.5 134.306 24.5C134.343 24.5 134.379 24.5 134.415 24.5C134.451 24.5 134.487 24.5 134.523 24.5C134.559 24.5 134.594 24.5 134.63 24.5C134.665 24.5 134.7 24.5 134.735 24.5C134.77 24.5 134.805 24.5 134.839 24.5C134.874 24.5 134.908 24.5 134.942 24.5C134.977 24.5 135.011 24.5 135.044 24.5C135.078 24.5 135.112 24.5 135.145 24.5C135.178 24.5 135.212 24.5 135.245 24.5C135.278 24.5 135.31 24.5 135.343 24.5C135.376 24.5 135.408 24.5 135.44 24.5C135.472 24.5 135.504 24.5 135.536 24.5C135.568 24.5 135.599 24.5 135.631 24.5C135.662 24.5 135.693 24.5 135.724 24.5C135.755 24.5 135.786 24.5 135.817 24.5C135.847 24.5 135.878 24.5 135.908 24.5C135.938 24.5 135.968 24.5 135.998 24.5C136.027 24.5 136.057 24.5 136.086 24.5C136.116 24.5 136.145 24.5 136.174 24.5C136.203 24.5 136.231 24.5 136.26 24.5C136.288 24.5 136.317 24.5 136.345 24.5C136.373 24.5 136.401 24.5 136.428 24.5C136.456 24.5 136.484 24.5 136.511 24.5C136.538 24.5 136.565 24.5 136.592 24.5C136.619 24.5 136.646 24.5 136.672 24.5C136.698 24.5 136.725 24.5 136.751 24.5C136.777 24.5 136.802 24.5 136.828 24.5C136.854 24.5 136.879 24.5 136.904 24.5C136.929 24.5 136.954 24.5 136.979 24.5C137.004 24.5 137.028 24.5 137.053 24.5C137.077 24.5 137.101 24.5 137.125 24.5C137.149 24.5 137.173 24.5 137.196 24.5C137.219 24.5 137.243 24.5 137.266 24.5C137.289 24.5 137.312 24.5 137.334 24.5C137.357 24.5 137.379 24.5 137.401 24.5C137.424 24.5 137.445 24.5 137.467 24.5C137.489 24.5 137.51 24.5 137.532 24.5C137.553 24.5 137.574 24.5 137.595 24.5C137.616 24.5 137.637 24.5 137.657 24.5C137.677 24.5 137.698 24.5 137.718 24.5C137.738 24.5 137.757 24.5 137.777 24.5C137.796 24.5 137.816 24.5 137.835 24.5C137.854 24.5 137.873 24.5 137.892 24.5C137.91 24.5 137.929 24.5 137.947 24.5C137.965 24.5 137.983 24.5 138.001 24.5C138.019 24.5 138.036 24.5 138.054 24.5C138.071 24.5 138.088 24.5 138.105 24.5C138.122 24.5 138.138 24.5 138.155 24.5C138.171 24.5 138.187 24.5 138.203 24.5C138.219 24.5 138.235 24.5 138.251 24.5C138.266 24.5 138.282 24.5 138.297 24.5C138.312 24.5 138.326 24.5 138.341 24.5C138.356 24.5 138.37 24.5 138.384 24.5C138.398 24.5 138.412 24.5 138.426 24.5C138.44 24.5 138.453 24.5 138.467 24.5C138.48 24.5 138.493 24.5 138.506 24.5C138.518 24.5 138.531 24.5 138.543 24.5C138.556 24.5 138.568 24.5 138.579 24.5C138.591 24.5 138.603 24.5 138.614 24.5C138.626 24.5 138.637 24.5 138.648 24.5C138.659 24.5 138.669 24.5 138.68 24.5C138.69 24.5 138.701 24.5 138.711 24.5C138.721 24.5 138.73 24.5 138.74 24.5C138.749 24.5 138.759 24.5 138.768 24.5C138.777 24.5 138.786 24.5 138.794 24.5C138.803 24.5 138.811 24.5 138.819 24.5C138.827 24.5 138.835 24.5 138.843 24.5C138.851 24.5 138.858 24.5 138.865 24.5C138.872 24.5 138.879 24.5 138.886 24.5C138.893 24.5 138.899 24.5 138.905 24.5C138.911 24.5 138.917 24.5 138.923 24.5C138.929 24.5 138.934 24.5 138.94 24.5C138.945 24.5 138.95 24.5 138.955 24.5C138.959 24.5 138.964 24.5 138.968 24.5C138.972 24.5 138.976 24.5 138.98 24.5C138.984 24.5 138.988 24.5 138.991 24.5C138.994 24.5 138.997 24.5 139 24.5V17.5C138.997 17.5 138.994 17.5 138.991 17.5C138.988 17.5 138.984 17.5 138.98 17.5C138.976 17.5 138.972 17.5 138.968 17.5C138.964 17.5 138.959 17.5 138.955 17.5C138.95 17.5 138.945 17.5 138.94 17.5C138.934 17.5 138.929 17.5 138.923 17.5C138.917 17.5 138.911 17.5 138.905 17.5C138.899 17.5 138.893 17.5 138.886 17.5C138.879 17.5 138.872 17.5 138.865 17.5C138.858 17.5 138.851 17.5 138.843 17.5C138.835 17.5 138.827 17.5 138.819 17.5C138.811 17.5 138.803 17.5 138.794 17.5C138.786 17.5 138.777 17.5 138.768 17.5C138.759 17.5 138.749 17.5 138.74 17.5C138.73 17.5 138.721 17.5 138.711 17.5C138.701 17.5 138.69 17.5 138.68 17.5C138.669 17.5 138.659 17.5 138.648 17.5C138.637 17.5 138.626 17.5 138.614 17.5C138.603 17.5 138.591 17.5 138.579 17.5C138.568 17.5 138.556 17.5 138.543 17.5C138.531 17.5 138.518 17.5 138.506 17.5C138.493 17.5 138.48 17.5 138.467 17.5C138.453 17.5 138.44 17.5 138.426 17.5C138.412 17.5 138.398 17.5 138.384 17.5C138.37 17.5 138.356 17.5 138.341 17.5C138.326 17.5 138.312 17.5 138.297 17.5C138.282 17.5 138.266 17.5 138.251 17.5C138.235 17.5 138.219 17.5 138.203 17.5C138.187 17.5 138.171 17.5 138.155 17.5C138.138 17.5 138.122 17.5 138.105 17.5C138.088 17.5 138.071 17.5 138.054 17.5C138.036 17.5 138.019 17.5 138.001 17.5C137.983 17.5 137.965 17.5 137.947 17.5C137.929 17.5 137.91 17.5 137.892 17.5C137.873 17.5 137.854 17.5 137.835 17.5C137.816 17.5 137.796 17.5 137.777 17.5C137.757 17.5 137.738 17.5 137.718 17.5C137.698 17.5 137.677 17.5 137.657 17.5C137.637 17.5 137.616 17.5 137.595 17.5C137.574 17.5 137.553 17.5 137.532 17.5C137.51 17.5 137.489 17.5 137.467 17.5C137.445 17.5 137.424 17.5 137.401 17.5C137.379 17.5 137.357 17.5 137.334 17.5C137.312 17.5 137.289 17.5 137.266 17.5C137.243 17.5 137.219 17.5 137.196 17.5C137.173 17.5 137.149 17.5 137.125 17.5C137.101 17.5 137.077 17.5 137.053 17.5C137.028 17.5 137.004 17.5 136.979 17.5C136.954 17.5 136.929 17.5 136.904 17.5C136.879 17.5 136.854 17.5 136.828 17.5C136.802 17.5 136.777 17.5 136.751 17.5C136.725 17.5 136.698 17.5 136.672 17.5C136.646 17.5 136.619 17.5 136.592 17.5C136.565 17.5 136.538 17.5 136.511 17.5C136.484 17.5 136.456 17.5 136.428 17.5C136.401 17.5 136.373 17.5 136.345 17.5C136.317 17.5 136.288 17.5 136.26 17.5C136.231 17.5 136.203 17.5 136.174 17.5C136.145 17.5 136.116 17.5 136.086 17.5C136.057 17.5 136.027 17.5 135.998 17.5C135.968 17.5 135.938 17.5 135.908 17.5C135.878 17.5 135.847 17.5 135.817 17.5C135.786 17.5 135.755 17.5 135.724 17.5C135.693 17.5 135.662 17.5 135.631 17.5C135.599 17.5 135.568 17.5 135.536 17.5C135.504 17.5 135.472 17.5 135.44 17.5C135.408 17.5 135.376 17.5 135.343 17.5C135.31 17.5 135.278 17.5 135.245 17.5C135.212 17.5 135.178 17.5 135.145 17.5C135.112 17.5 135.078 17.5 135.044 17.5C135.011 17.5 134.977 17.5 134.942 17.5C134.908 17.5 134.874 17.5 134.839 17.5C134.805 17.5 134.77 17.5 134.735 17.5C134.7 17.5 134.665 17.5 134.63 17.5C134.594 17.5 134.559 17.5 134.523 17.5C134.487 17.5 134.451 17.5 134.415 17.5C134.379 17.5 134.343 17.5 134.306 17.5C134.27 17.5 134.233 17.5 134.196 17.5C134.159 17.5 134.122 17.5 134.085 17.5C134.047 17.5 134.01 17.5 133.972 17.5C133.935 17.5 133.897 17.5 133.859 17.5C133.821 17.5 133.782 17.5 133.744 17.5C133.706 17.5 133.667 17.5 133.628 17.5C133.589 17.5 133.55 17.5 133.511 17.5C133.472 17.5 133.433 17.5 133.393 17.5C133.353 17.5 133.314 17.5 133.274 17.5C133.234 17.5 133.194 17.5 133.153 17.5C133.113 17.5 133.073 17.5 133.032 17.5C132.991 17.5 132.95 17.5 132.909 17.5C132.868 17.5 132.827 17.5 132.786 17.5C132.744 17.5 132.702 17.5 132.661 17.5C132.619 17.5 132.577 17.5 132.535 17.5C132.493 17.5 132.45 17.5 132.408 17.5C132.365 17.5 132.322 17.5 132.28 17.5C132.237 17.5 132.194 17.5 132.15 17.5C132.107 17.5 132.064 17.5 132.02 17.5C131.976 17.5 131.933 17.5 131.889 17.5C131.845 17.5 131.8 17.5 131.756 17.5C131.712 17.5 131.667 17.5 131.623 17.5C131.578 17.5 131.533 17.5 131.488 17.5C131.443 17.5 131.398 17.5 131.352 17.5C131.307 17.5 131.261 17.5 131.215 17.5C131.17 17.5 131.124 17.5 131.078 17.5C131.032 17.5 130.985 17.5 130.939 17.5C130.892 17.5 130.846 17.5 130.799 17.5C130.752 17.5 130.705 17.5 130.658 17.5C130.611 17.5 130.563 17.5 130.516 17.5C130.468 17.5 130.421 17.5 130.373 17.5C130.325 17.5 130.277 17.5 130.229 17.5C130.18 17.5 130.132 17.5 130.083 17.5C130.035 17.5 129.986 17.5 129.937 17.5C129.888 17.5 129.839 17.5 129.79 17.5C129.741 17.5 129.691 17.5 129.642 17.5C129.592 17.5 129.543 17.5 129.493 17.5C129.443 17.5 129.393 17.5 129.342 17.5C129.292 17.5 129.242 17.5 129.191 17.5C129.141 17.5 129.09 17.5 129.039 17.5C128.988 17.5 128.937 17.5 128.886 17.5C128.834 17.5 128.783 17.5 128.731 17.5C128.68 17.5 128.628 17.5 128.576 17.5C128.524 17.5 128.472 17.5 128.42 17.5C128.368 17.5 128.315 17.5 128.263 17.5C128.21 17.5 128.157 17.5 128.105 17.5C128.052 17.5 127.999 17.5 127.945 17.5C127.892 17.5 127.839 17.5 127.785 17.5C127.732 17.5 127.678 17.5 127.624 17.5C127.57 17.5 127.516 17.5 127.462 17.5C127.408 17.5 127.353 17.5 127.299 17.5C127.244 17.5 127.19 17.5 127.135 17.5C127.08 17.5 127.025 17.5 126.97 17.5C126.915 17.5 126.86 17.5 126.804 17.5C126.749 17.5 126.693 17.5 126.637 17.5C126.581 17.5 126.526 17.5 126.469 17.5C126.413 17.5 126.357 17.5 126.301 17.5C126.244 17.5 126.188 17.5 126.131 17.5C126.074 17.5 126.018 17.5 125.961 17.5C125.903 17.5 125.846 17.5 125.789 17.5C125.732 17.5 125.674 17.5 125.617 17.5C125.559 17.5 125.501 17.5 125.443 17.5C125.385 17.5 125.327 17.5 125.269 17.5C125.211 17.5 125.152 17.5 125.094 17.5C125.035 17.5 124.977 17.5 124.918 17.5C124.859 17.5 124.8 17.5 124.741 17.5C124.682 17.5 124.622 17.5 124.563 17.5C124.503 17.5 124.444 17.5 124.384 17.5C124.324 17.5 124.264 17.5 124.204 17.5C124.144 17.5 124.084 17.5 124.024 17.5C123.964 17.5 123.903 17.5 123.842 17.5C123.782 17.5 123.721 17.5 123.66 17.5C123.599 17.5 123.538 17.5 123.477 17.5C123.416 17.5 123.354 17.5 123.293 17.5C123.231 17.5 123.17 17.5 123.108 17.5C123.046 17.5 122.984 17.5 122.922 17.5C122.86 17.5 122.798 17.5 122.736 17.5C122.673 17.5 122.611 17.5 122.548 17.5C122.485 17.5 122.423 17.5 122.36 17.5C122.297 17.5 122.234 17.5 122.171 17.5C122.107 17.5 122.044 17.5 121.981 17.5C121.917 17.5 121.853 17.5 121.79 17.5C121.726 17.5 121.662 17.5 121.598 17.5C121.534 17.5 121.47 17.5 121.405 17.5C121.341 17.5 121.277 17.5 121.212 17.5C121.148 17.5 121.083 17.5 121.018 17.5C120.953 17.5 120.888 17.5 120.823 17.5C120.758 17.5 120.693 17.5 120.627 17.5C120.562 17.5 120.496 17.5 120.431 17.5C120.365 17.5 120.299 17.5 120.233 17.5C120.167 17.5 120.101 17.5 120.035 17.5C119.969 17.5 119.902 17.5 119.836 17.5C119.769 17.5 119.703 17.5 119.636 17.5C119.569 17.5 119.503 17.5 119.436 17.5C119.369 17.5 119.301 17.5 119.234 17.5C119.167 17.5 119.099 17.5 119.032 17.5C118.964 17.5 118.897 17.5 118.829 17.5C118.761 17.5 118.693 17.5 118.625 17.5C118.557 17.5 118.489 17.5 118.421 17.5C118.353 17.5 118.284 17.5 118.216 17.5C118.147 17.5 118.078 17.5 118.01 17.5C117.941 17.5 117.872 17.5 117.803 17.5C117.734 17.5 117.665 17.5 117.595 17.5C117.526 17.5 117.457 17.5 117.387 17.5C117.317 17.5 117.248 17.5 117.178 17.5C117.108 17.5 117.038 17.5 116.968 17.5C116.898 17.5 116.828 17.5 116.758 17.5C116.687 17.5 116.617 17.5 116.546 17.5C116.476 17.5 116.405 17.5 116.334 17.5C116.264 17.5 116.193 17.5 116.122 17.5C116.051 17.5 115.98 17.5 115.908 17.5C115.837 17.5 115.766 17.5 115.694 17.5C115.623 17.5 115.551 17.5 115.479 17.5C115.408 17.5 115.336 17.5 115.264 17.5C115.192 17.5 115.12 17.5 115.048 17.5C114.975 17.5 114.903 17.5 114.831 17.5C114.758 17.5 114.686 17.5 114.613 17.5C114.54 17.5 114.467 17.5 114.395 17.5C114.322 17.5 114.249 17.5 114.175 17.5C114.102 17.5 114.029 17.5 113.956 17.5C113.882 17.5 113.809 17.5 113.735 17.5C113.662 17.5 113.588 17.5 113.514 17.5C113.44 17.5 113.366 17.5 113.292 17.5C113.218 17.5 113.144 17.5 113.07 17.5C112.996 17.5 112.921 17.5 112.847 17.5C112.772 17.5 112.698 17.5 112.623 17.5C112.548 17.5 112.474 17.5 112.399 17.5C112.324 17.5 112.249 17.5 112.174 17.5C112.098 17.5 112.023 17.5 111.948 17.5C111.872 17.5 111.797 17.5 111.721 17.5C111.646 17.5 111.57 17.5 111.494 17.5C111.419 17.5 111.343 17.5 111.267 17.5C111.191 17.5 111.115 17.5 111.038 17.5C110.962 17.5 110.886 17.5 110.81 17.5C110.733 17.5 110.657 17.5 110.58 17.5C110.503 17.5 110.427 17.5 110.35 17.5C110.273 17.5 110.196 17.5 110.119 17.5C110.042 17.5 109.965 17.5 109.888 17.5C109.81 17.5 109.733 17.5 109.656 17.5C109.578 17.5 109.501 17.5 109.423 17.5C109.345 17.5 109.268 17.5 109.19 17.5C109.112 17.5 109.034 17.5 108.956 17.5C108.878 17.5 108.8 17.5 108.721 17.5C108.643 17.5 108.565 17.5 108.486 17.5C108.408 17.5 108.329 17.5 108.251 17.5C108.172 17.5 108.093 17.5 108.015 17.5C107.936 17.5 107.857 17.5 107.778 17.5C107.699 17.5 107.62 17.5 107.541 17.5C107.461 17.5 107.382 17.5 107.303 17.5C107.223 17.5 107.144 17.5 107.064 17.5C106.985 17.5 106.905 17.5 106.825 17.5C106.745 17.5 106.665 17.5 106.585 17.5C106.506 17.5 106.425 17.5 106.345 17.5C106.265 17.5 106.185 17.5 106.105 17.5C106.024 17.5 105.944 17.5 105.863 17.5C105.783 17.5 105.702 17.5 105.622 17.5C105.541 17.5 105.46 17.5 105.379 17.5C105.298 17.5 105.217 17.5 105.136 17.5C105.055 17.5 104.974 17.5 104.893 17.5C104.812 17.5 104.73 17.5 104.649 17.5C104.568 17.5 104.486 17.5 104.405 17.5C104.323 17.5 104.241 17.5 104.16 17.5C104.078 17.5 103.996 17.5 103.914 17.5C103.832 17.5 103.75 17.5 103.668 17.5C103.586 17.5 103.504 17.5 103.422 17.5C103.339 17.5 103.257 17.5 103.175 17.5C103.092 17.5 103.01 17.5 102.927 17.5C102.844 17.5 102.762 17.5 102.679 17.5C102.596 17.5 102.513 17.5 102.431 17.5C102.348 17.5 102.265 17.5 102.182 17.5C102.098 17.5 102.015 17.5 101.932 17.5C101.849 17.5 101.766 17.5 101.682 17.5C101.599 17.5 101.515 17.5 101.432 17.5C101.348 17.5 101.265 17.5 101.181 17.5C101.097 17.5 101.013 17.5 100.929 17.5C100.846 17.5 100.762 17.5 100.678 17.5C100.594 17.5 100.509 17.5 100.425 17.5C100.341 17.5 100.257 17.5 100.173 17.5C100.088 17.5 100.004 17.5 99.9194 17.5C99.8349 17.5 99.7504 17.5 99.6657 17.5C99.5811 17.5 99.4964 17.5 99.4117 17.5C99.3269 17.5 99.242 17.5 99.1571 17.5C99.0722 17.5 98.9872 17.5 98.9022 17.5C98.8171 17.5 98.732 17.5 98.6468 17.5C98.5616 17.5 98.4763 17.5 98.391 17.5C98.3056 17.5 98.2202 17.5 98.1347 17.5C98.0492 17.5 97.9637 17.5 97.878 17.5C97.7924 17.5 97.7067 17.5 97.621 17.5C97.5352 17.5 97.4494 17.5 97.3635 17.5C97.2776 17.5 97.1916 17.5 97.1056 17.5C97.0195 17.5 96.9334 17.5 96.8473 17.5C96.7611 17.5 96.6749 17.5 96.5886 17.5C96.5023 17.5 96.4159 17.5 96.3295 17.5C96.243 17.5 96.1565 17.5 96.07 17.5C95.9834 17.5 95.8968 17.5 95.8101 17.5C95.7234 17.5 95.6366 17.5 95.5498 17.5C95.463 17.5 95.3761 17.5 95.2892 17.5C95.2022 17.5 95.1152 17.5 95.0282 17.5C94.9411 17.5 94.854 17.5 94.7668 17.5C94.6796 17.5 94.5923 17.5 94.505 17.5C94.4177 17.5 94.3303 17.5 94.2429 17.5C94.1554 17.5 94.0679 17.5 93.9804 17.5C93.8928 17.5 93.8052 17.5 93.7175 17.5C93.6299 17.5 93.5421 17.5 93.4543 17.5C93.3666 17.5 93.2787 17.5 93.1908 17.5C93.1029 17.5 93.0149 17.5 92.9269 17.5C92.8389 17.5 92.7508 17.5 92.6627 17.5C92.5746 17.5 92.4864 17.5 92.3981 17.5C92.3099 17.5 92.2216 17.5 92.1332 17.5C92.0449 17.5 91.9565 17.5 91.868 17.5C91.7795 17.5 91.691 17.5 91.6025 17.5C91.5139 17.5 91.4253 17.5 91.3366 17.5C91.2479 17.5 91.1592 17.5 91.0704 17.5C90.9816 17.5 90.8928 17.5 90.8039 17.5C90.715 17.5 90.6261 17.5 90.5371 17.5C90.4481 17.5 90.3591 17.5 90.27 17.5C90.1809 17.5 90.0918 17.5 90.0026 17.5C89.9134 17.5 89.8242 17.5 89.7349 17.5C89.6456 17.5 89.5563 17.5 89.4669 17.5C89.3775 17.5 89.2881 17.5 89.1986 17.5C89.1091 17.5 89.0196 17.5 88.93 17.5C88.8404 17.5 88.7508 17.5 88.6612 17.5C88.5715 17.5 88.4818 17.5 88.392 17.5C88.3023 17.5 88.2125 17.5 88.1226 17.5C88.0328 17.5 87.9429 17.5 87.853 17.5C87.763 17.5 87.673 17.5 87.583 17.5C87.493 17.5 87.4029 17.5 87.3128 17.5C87.2227 17.5 87.1326 17.5 87.0424 17.5C86.9522 17.5 86.8619 17.5 86.7717 17.5C86.6814 17.5 86.5911 17.5 86.5007 17.5C86.4103 17.5 86.3199 17.5 86.2295 17.5C86.1391 17.5 86.0486 17.5 85.9581 17.5C85.8675 17.5 85.777 17.5 85.6864 17.5C85.5958 17.5 85.5051 17.5 85.4145 17.5C85.3238 17.5 85.2331 17.5 85.1423 17.5C85.0516 17.5 84.9608 17.5 84.87 17.5C84.7792 17.5 84.6883 17.5 84.5974 17.5C84.5065 17.5 84.4156 17.5 84.3246 17.5C84.2336 17.5 84.1426 17.5 84.0516 17.5C83.9605 17.5 83.8695 17.5 83.7783 17.5C83.6872 17.5 83.5961 17.5 83.5049 17.5C83.4137 17.5 83.3225 17.5 83.2313 17.5C83.14 17.5 83.0488 17.5 82.9575 17.5C82.8661 17.5 82.7748 17.5 82.6834 17.5C82.5921 17.5 82.5007 17.5 82.4092 17.5C82.3178 17.5 82.2263 17.5 82.1348 17.5C82.0433 17.5 81.9518 17.5 81.8603 17.5C81.7687 17.5 81.6771 17.5 81.5855 17.5C81.4939 17.5 81.4023 17.5 81.3106 17.5C81.2189 17.5 81.1272 17.5 81.0355 17.5C80.9438 17.5 80.852 17.5 80.7602 17.5C80.6684 17.5 80.5766 17.5 80.4848 17.5C80.393 17.5 80.3011 17.5 80.2092 17.5C80.1173 17.5 80.0254 17.5 79.9335 17.5C79.8416 17.5 79.7496 17.5 79.6576 17.5C79.5656 17.5 79.4736 17.5 79.3816 17.5C79.2896 17.5 79.1975 17.5 79.1054 17.5C79.0133 17.5 78.9212 17.5 78.8291 17.5C78.737 17.5 78.6448 17.5 78.5527 17.5C78.4605 17.5 78.3683 17.5 78.2761 17.5C78.1839 17.5 78.0917 17.5 77.9994 17.5C77.9072 17.5 77.8149 17.5 77.7226 17.5C77.6303 17.5 77.538 17.5 77.4457 17.5C77.3533 17.5 77.261 17.5 77.1686 17.5C77.0762 17.5 76.9839 17.5 76.8915 17.5C76.799 17.5 76.7066 17.5 76.6142 17.5C76.5218 17.5 76.4293 17.5 76.3368 17.5C76.2444 17.5 76.1519 17.5 76.0594 17.5C75.9669 17.5 75.8744 17.5 75.7818 17.5C75.6893 17.5 75.5967 17.5 75.5042 17.5C75.4116 17.5 75.319 17.5 75.2264 17.5C75.1339 17.5 75.0413 17.5 74.9486 17.5C74.856 17.5 74.7634 17.5 74.6707 17.5C74.5781 17.5 74.4854 17.5 74.3928 17.5C74.3001 17.5 74.2074 17.5 74.1147 17.5C74.0221 17.5 73.9294 17.5 73.8366 17.5C73.7439 17.5 73.6512 17.5 73.5585 17.5C73.4658 17.5 73.373 17.5 73.2803 17.5C73.1875 17.5 73.0948 17.5 73.002 17.5C72.9092 17.5 72.8165 17.5 72.7237 17.5C72.6309 17.5 72.5381 17.5 72.4453 17.5C72.3525 17.5 72.2597 17.5 72.1669 17.5C72.0741 17.5 71.9813 17.5 71.8885 17.5C71.7956 17.5 71.7028 17.5 71.61 17.5C71.5171 17.5 71.4243 17.5 71.3315 17.5C71.2386 17.5 71.1458 17.5 71.0529 17.5C70.9601 17.5 70.8672 17.5 70.7744 17.5C70.6815 17.5 70.5886 17.5 70.4958 17.5C70.4029 17.5 70.3101 17.5 70.2172 17.5C70.1243 17.5 70.0315 17.5 69.9386 17.5C69.8457 17.5 69.7529 17.5 69.66 17.5C69.5671 17.5 69.4743 17.5 69.3814 17.5C69.2885 17.5 69.1956 17.5 69.1028 17.5C69.0099 17.5 68.917 17.5 68.8242 17.5C68.7313 17.5 68.6384 17.5 68.5456 17.5C68.4527 17.5 68.3599 17.5 68.267 17.5C68.1741 17.5 68.0813 17.5 67.9884 17.5C67.8956 17.5 67.8027 17.5 67.7099 17.5C67.6171 17.5 67.5242 17.5 67.4314 17.5C67.3386 17.5 67.2457 17.5 67.1529 17.5C67.0601 17.5 66.9673 17.5 66.8745 17.5C66.7816 17.5 66.6888 17.5 66.596 17.5C66.5032 17.5 66.4105 17.5 66.3177 17.5C66.2249 17.5 66.1321 17.5 66.0393 17.5C65.9466 17.5 65.8538 17.5 65.7611 17.5C65.6683 17.5 65.5756 17.5 65.4828 17.5C65.3901 17.5 65.2974 17.5 65.2047 17.5C65.112 17.5 65.0193 17.5 64.9266 17.5C64.8339 17.5 64.7412 17.5 64.6486 17.5C64.5559 17.5 64.4632 17.5 64.3706 17.5C64.2779 17.5 64.1853 17.5 64.0927 17.5C64.0001 17.5 63.9075 17.5 63.8149 17.5C63.7223 17.5 63.6297 17.5 63.5371 17.5C63.4446 17.5 63.352 17.5 63.2595 17.5C63.167 17.5 63.0744 17.5 62.9819 17.5C62.8894 17.5 62.7969 17.5 62.7045 17.5C62.612 17.5 62.5195 17.5 62.4271 17.5C62.3347 17.5 62.2422 17.5 62.1498 17.5C62.0574 17.5 61.965 17.5 61.8727 17.5C61.7803 17.5 61.6879 17.5 61.5956 17.5C61.5033 17.5 61.411 17.5 61.3187 17.5C61.2264 17.5 61.1341 17.5 61.0418 17.5C60.9496 17.5 60.8574 17.5 60.7651 17.5C60.6729 17.5 60.5807 17.5 60.4886 17.5C60.3964 17.5 60.3042 17.5 60.2121 17.5C60.12 17.5 60.0279 17.5 59.9358 17.5C59.8437 17.5 59.7517 17.5 59.6596 17.5C59.5676 17.5 59.4756 17.5 59.3836 17.5C59.2916 17.5 59.1996 17.5 59.1077 17.5C59.0158 17.5 58.9239 17.5 58.832 17.5C58.7401 17.5 58.6482 17.5 58.5564 17.5C58.4645 17.5 58.3727 17.5 58.2809 17.5C58.1892 17.5 58.0974 17.5 58.0057 17.5C57.9139 17.5 57.8222 17.5 57.7306 17.5C57.6389 17.5 57.5472 17.5 57.4556 17.5C57.364 17.5 57.2724 17.5 57.1809 17.5C57.0893 17.5 56.9978 17.5 56.9063 17.5C56.8148 17.5 56.7233 17.5 56.6319 17.5C56.5404 17.5 56.449 17.5 56.3577 17.5C56.2663 17.5 56.1749 17.5 56.0836 17.5C55.9923 17.5 55.901 17.5 55.8098 17.5C55.7185 17.5 55.6273 17.5 55.5361 17.5C55.445 17.5 55.3538 17.5 55.2627 17.5C55.1716 17.5 55.0805 17.5 54.9895 17.5C54.8984 17.5 54.8074 17.5 54.7164 17.5C54.6255 17.5 54.5345 17.5 54.4436 17.5C54.3527 17.5 54.2618 17.5 54.171 17.5C54.0802 17.5 53.9894 17.5 53.8986 17.5C53.8079 17.5 53.7172 17.5 53.6265 17.5C53.5358 17.5 53.4452 17.5 53.3546 17.5C53.264 17.5 53.1734 17.5 53.0829 17.5C52.9923 17.5 52.9019 17.5 52.8114 17.5C52.721 17.5 52.6306 17.5 52.5402 17.5C52.4498 17.5 52.3595 17.5 52.2692 17.5C52.1789 17.5 52.0887 17.5 51.9985 17.5C51.9083 17.5 51.8181 17.5 51.728 17.5C51.6379 17.5 51.5478 17.5 51.4578 17.5C51.3678 17.5 51.2778 17.5 51.1879 17.5C51.0979 17.5 51.008 17.5 50.9182 17.5C50.8283 17.5 50.7385 17.5 50.6488 17.5C50.559 17.5 50.4693 17.5 50.3796 17.5C50.2899 17.5 50.2003 17.5 50.1107 17.5C50.0212 17.5 49.9316 17.5 49.8422 17.5C49.7527 17.5 49.6632 17.5 49.5738 17.5C49.4845 17.5 49.3951 17.5 49.3058 17.5C49.2165 17.5 49.1273 17.5 49.0381 17.5C48.9489 17.5 48.8598 17.5 48.7707 17.5C48.6816 17.5 48.5925 17.5 48.5035 17.5C48.4146 17.5 48.3256 17.5 48.2367 17.5C48.1478 17.5 48.059 17.5 47.9702 17.5C47.8814 17.5 47.7927 17.5 47.704 17.5C47.6153 17.5 47.5267 17.5 47.4381 17.5C47.3495 17.5 47.261 17.5 47.1725 17.5C47.0841 17.5 46.9957 17.5 46.9073 17.5C46.8189 17.5 46.7306 17.5 46.6424 17.5C46.5541 17.5 46.4659 17.5 46.3778 17.5C46.2897 17.5 46.2016 17.5 46.1136 17.5C46.0255 17.5 45.9376 17.5 45.8496 17.5C45.7617 17.5 45.6739 17.5 45.5861 17.5C45.4983 17.5 45.4105 17.5 45.3229 17.5C45.2352 17.5 45.1476 17.5 45.06 17.5C44.9724 17.5 44.8849 17.5 44.7975 17.5C44.71 17.5 44.6227 17.5 44.5353 17.5C44.448 17.5 44.3608 17.5 44.2736 17.5C44.1864 17.5 44.0992 17.5 44.0121 17.5C43.9251 17.5 43.8381 17.5 43.7511 17.5C43.6642 17.5 43.5773 17.5 43.4904 17.5C43.4036 17.5 43.3168 17.5 43.2301 17.5C43.1434 17.5 43.0568 17.5 42.9702 17.5C42.8837 17.5 42.7972 17.5 42.7107 17.5C42.6243 17.5 42.5379 17.5 42.4516 17.5C42.3653 17.5 42.279 17.5 42.1929 17.5C42.1067 17.5 42.0206 17.5 41.9345 17.5C41.8485 17.5 41.7625 17.5 41.6766 17.5C41.5907 17.5 41.5049 17.5 41.4191 17.5C41.3333 17.5 41.2476 17.5 41.162 17.5C41.0764 17.5 40.9908 17.5 40.9053 17.5C40.8198 17.5 40.7344 17.5 40.649 17.5C40.5637 17.5 40.4784 17.5 40.3932 17.5C40.308 17.5 40.2228 17.5 40.1378 17.5C40.0527 17.5 39.9677 17.5 39.8828 17.5C39.7978 17.5 39.713 17.5 39.6282 17.5C39.5434 17.5 39.4587 17.5 39.3741 17.5C39.2895 17.5 39.2049 17.5 39.1204 17.5C39.0359 17.5 38.9515 17.5 38.8672 17.5C38.7829 17.5 38.6986 17.5 38.6144 17.5C38.5303 17.5 38.4461 17.5 38.3621 17.5C38.2781 17.5 38.1941 17.5 38.1103 17.5C38.0264 17.5 37.9426 17.5 37.8589 17.5C37.7752 17.5 37.6915 17.5 37.6079 17.5C37.5244 17.5 37.4409 17.5 37.3575 17.5C37.2741 17.5 37.1908 17.5 37.1075 17.5C37.0243 17.5 36.9411 17.5 36.858 17.5C36.7749 17.5 36.6919 17.5 36.609 17.5C36.5261 17.5 36.4432 17.5 36.3605 17.5C36.2777 17.5 36.195 17.5 36.1124 17.5C36.0298 17.5 35.9473 17.5 35.8649 17.5C35.7825 17.5 35.7001 17.5 35.6178 17.5C35.5356 17.5 35.4534 17.5 35.3713 17.5C35.2892 17.5 35.2072 17.5 35.1253 17.5C35.0433 17.5 34.9615 17.5 34.8797 17.5C34.798 17.5 34.7163 17.5 34.6347 17.5C34.5532 17.5 34.4717 17.5 34.3902 17.5C34.3088 17.5 34.2275 17.5 34.1463 17.5C34.065 17.5 33.9839 17.5 33.9028 17.5C33.8218 17.5 33.7408 17.5 33.6599 17.5C33.5791 17.5 33.4983 17.5 33.4176 17.5C33.3369 17.5 33.2562 17.5 33.1757 17.5C33.0952 17.5 33.0148 17.5 32.9344 17.5C32.8541 17.5 32.7739 17.5 32.6937 17.5C32.6135 17.5 32.5335 17.5 32.4535 17.5C32.3735 17.5 32.2937 17.5 32.2139 17.5C32.1341 17.5 32.0544 17.5 31.9748 17.5C31.8952 17.5 31.8157 17.5 31.7363 17.5C31.6569 17.5 31.5775 17.5 31.4983 17.5V24.5Z" fill="#00F200"/>
<path d="M35 19C35 19 137.436 19 139 19" stroke="#21F6EE" stroke-width="3" stroke-miterlimit="3.8637"/>
<path d="M23.7962 140V126H25.9162L31.0162 134.3L29.9962 134.28L35.1562 126H37.1562V140H34.9962V134.26C34.9962 133.06 35.0229 131.98 35.0762 131.02C35.1429 130.06 35.2495 129.107 35.3962 128.16L35.6762 128.9L31.0962 135.98H29.7762L25.3362 128.98L25.5562 128.16C25.7029 129.053 25.8029 129.973 25.8562 130.92C25.9229 131.853 25.9562 132.967 25.9562 134.26V140H23.7962ZM40.3014 140V129.5H42.3614V140H40.3014ZM41.3014 127.18C40.8614 127.18 40.5214 127.067 40.2814 126.84C40.0414 126.613 39.9214 126.293 39.9214 125.88C39.9214 125.493 40.0414 125.18 40.2814 124.94C40.5347 124.7 40.8747 124.58 41.3014 124.58C41.7414 124.58 42.0814 124.693 42.3214 124.92C42.5614 125.147 42.6814 125.467 42.6814 125.88C42.6814 126.267 42.5547 126.58 42.3014 126.82C42.0614 127.06 41.728 127.18 41.3014 127.18ZM44.9678 140V125.2H47.0278V140H44.9678ZM49.3873 140V125.2H51.4473V140H49.3873ZM54.1068 140V129.5H56.1668V140H54.1068ZM55.1068 127.18C54.6668 127.18 54.3268 127.067 54.0868 126.84C53.8468 126.613 53.7268 126.293 53.7268 125.88C53.7268 125.493 53.8468 125.18 54.0868 124.94C54.3402 124.7 54.6802 124.58 55.1068 124.58C55.5468 124.58 55.8868 124.693 56.1268 124.92C56.3668 125.147 56.4868 125.467 56.4868 125.88C56.4868 126.267 56.3602 126.58 56.1068 126.82C55.8668 127.06 55.5335 127.18 55.1068 127.18ZM63.4532 140.2C62.4266 140.2 61.5066 139.967 60.6932 139.5C59.8932 139.02 59.2599 138.373 58.7932 137.56C58.3266 136.733 58.0932 135.793 58.0932 134.74C58.0932 133.687 58.3266 132.753 58.7932 131.94C59.2599 131.113 59.8932 130.467 60.6932 130C61.5066 129.52 62.4266 129.28 63.4532 129.28C64.4666 129.28 65.3732 129.52 66.1732 130C66.9866 130.467 67.6266 131.113 68.0932 131.94C68.5599 132.753 68.7932 133.687 68.7932 134.74C68.7932 135.793 68.5599 136.733 68.0932 137.56C67.6266 138.373 66.9866 139.02 66.1732 139.5C65.3732 139.967 64.4666 140.2 63.4532 140.2ZM63.4532 138.32C64.0799 138.32 64.6399 138.167 65.1332 137.86C65.6266 137.54 66.0132 137.113 66.2932 136.58C66.5732 136.033 66.7066 135.42 66.6932 134.74C66.7066 134.047 66.5732 133.433 66.2932 132.9C66.0132 132.353 65.6266 131.927 65.1332 131.62C64.6399 131.313 64.0799 131.16 63.4532 131.16C62.8266 131.16 62.2599 131.32 61.7532 131.64C61.2599 131.947 60.8732 132.373 60.5932 132.92C60.3132 133.453 60.1799 134.06 60.1932 134.74C60.1799 135.42 60.3132 136.033 60.5932 136.58C60.8732 137.113 61.2599 137.54 61.7532 137.86C62.2599 138.167 62.8266 138.32 63.4532 138.32ZM70.4379 140V129.5H72.4979V131.66L72.1379 131.9C72.2713 131.433 72.5313 131.007 72.9179 130.62C73.3046 130.22 73.7646 129.9 74.2979 129.66C74.8313 129.407 75.3779 129.28 75.9379 129.28C76.7379 129.28 77.4046 129.44 77.9379 129.76C78.4713 130.067 78.8713 130.54 79.1379 131.18C79.4046 131.82 79.5379 132.627 79.5379 133.6V140H77.4779V133.74C77.4779 133.14 77.3979 132.647 77.2379 132.26C77.0779 131.86 76.8313 131.573 76.4979 131.4C76.1646 131.213 75.7513 131.133 75.2579 131.16C74.8579 131.16 74.4913 131.227 74.1579 131.36C73.8246 131.48 73.5313 131.653 73.2779 131.88C73.0379 132.107 72.8446 132.373 72.6979 132.68C72.5646 132.973 72.4979 133.293 72.4979 133.64V140H71.4779C71.3046 140 71.1313 140 70.9579 140C70.7846 140 70.6113 140 70.4379 140ZM90.1779 140L85.7379 129.5H87.9579L91.1579 137.36L90.7779 137.54L94.1979 129.5H96.3179L91.6579 140H90.1779ZM97.9428 140V129.5H100.003V140H97.9428ZM98.9428 127.18C98.5028 127.18 98.1628 127.067 97.9228 126.84C97.6828 126.613 97.5628 126.293 97.5628 125.88C97.5628 125.493 97.6828 125.18 97.9228 124.94C98.1761 124.7 98.5161 124.58 98.9428 124.58C99.3828 124.58 99.7228 124.693 99.9628 124.92C100.203 125.147 100.323 125.467 100.323 125.88C100.323 126.267 100.196 126.58 99.9428 126.82C99.7028 127.06 99.3694 127.18 98.9428 127.18ZM107.469 140.2C106.389 140.2 105.429 139.973 104.589 139.52C103.763 139.053 103.109 138.42 102.629 137.62C102.163 136.82 101.929 135.9 101.929 134.86C101.929 134.033 102.063 133.28 102.329 132.6C102.596 131.92 102.963 131.333 103.429 130.84C103.909 130.333 104.476 129.947 105.129 129.68C105.796 129.4 106.516 129.26 107.289 129.26C107.969 129.26 108.603 129.393 109.189 129.66C109.776 129.913 110.283 130.267 110.709 130.72C111.149 131.173 111.483 131.713 111.709 132.34C111.949 132.953 112.063 133.627 112.049 134.36L112.029 135.24H103.449L102.989 133.6H110.249L109.949 133.94V133.46C109.909 133.02 109.763 132.627 109.509 132.28C109.256 131.933 108.936 131.66 108.549 131.46C108.163 131.26 107.743 131.16 107.289 131.16C106.569 131.16 105.963 131.3 105.469 131.58C104.976 131.847 104.603 132.247 104.349 132.78C104.096 133.3 103.969 133.947 103.969 134.72C103.969 135.453 104.123 136.093 104.429 136.64C104.736 137.173 105.169 137.587 105.729 137.88C106.289 138.173 106.936 138.32 107.669 138.32C108.189 138.32 108.669 138.233 109.109 138.06C109.563 137.887 110.049 137.573 110.569 137.12L111.609 138.58C111.289 138.9 110.896 139.18 110.429 139.42C109.976 139.66 109.489 139.853 108.969 140C108.463 140.133 107.963 140.2 107.469 140.2ZM116.073 140L112.493 129.5L114.573 129.48L117.133 137.34L116.673 137.3L119.453 131.16H120.693L123.493 137.32L122.953 137.36L125.533 129.5H127.613L124.073 140H122.653L119.733 133.32L120.193 133.38L117.473 140H116.073ZM132.291 140.2C131.411 140.2 130.618 140.047 129.911 139.74C129.204 139.433 128.618 138.98 128.151 138.38L129.551 137.18C129.951 137.647 130.384 137.987 130.851 138.2C131.331 138.4 131.871 138.5 132.471 138.5C132.711 138.5 132.931 138.473 133.131 138.42C133.344 138.353 133.524 138.26 133.671 138.14C133.831 138.02 133.951 137.88 134.031 137.72C134.111 137.547 134.151 137.36 134.151 137.16C134.151 136.813 134.024 136.533 133.771 136.32C133.638 136.227 133.424 136.127 133.131 136.02C132.851 135.9 132.484 135.78 132.031 135.66C131.258 135.46 130.624 135.233 130.131 134.98C129.638 134.727 129.258 134.44 128.991 134.12C128.791 133.867 128.644 133.593 128.551 133.3C128.458 132.993 128.411 132.66 128.411 132.3C128.411 131.713 128.578 131.193 128.911 130.74C129.244 130.287 129.691 129.933 130.251 129.68C130.824 129.413 131.464 129.28 132.171 129.28C132.664 129.28 133.151 129.347 133.631 129.48C134.124 129.613 134.578 129.807 134.991 130.06C135.404 130.313 135.751 130.613 136.031 130.96L134.851 132.26C134.598 132.007 134.318 131.787 134.011 131.6C133.718 131.4 133.418 131.247 133.111 131.14C132.804 131.033 132.524 130.98 132.271 130.98C131.991 130.98 131.738 131.007 131.511 131.06C131.284 131.113 131.091 131.193 130.931 131.3C130.784 131.407 130.671 131.54 130.591 131.7C130.511 131.86 130.471 132.04 130.471 132.24C130.484 132.413 130.524 132.58 130.591 132.74C130.671 132.887 130.778 133.013 130.911 133.12C131.058 133.227 131.278 133.34 131.571 133.46C131.864 133.58 132.238 133.693 132.691 133.8C133.358 133.973 133.904 134.167 134.331 134.38C134.771 134.58 135.118 134.813 135.371 135.08C135.638 135.333 135.824 135.627 135.931 135.96C136.038 136.293 136.091 136.667 136.091 137.08C136.091 137.68 135.918 138.22 135.571 138.7C135.238 139.167 134.784 139.533 134.211 139.8C133.638 140.067 132.998 140.2 132.291 140.2Z" fill="#21F6EE"/>
<path d="M35 21L139 21" stroke="black"/>
</svg>
