<svg width="80" height="80" viewBox="0 0 80 80" fill="none" xmlns="http://www.w3.org/2000/svg">
<path d="M49.32 16.3667H30.68C30.3855 16.3665 30.103 16.4832 29.8945 16.6912L16.7145 29.8712C16.5061 30.0795 16.389 30.362 16.3889 30.6567V49.2967C16.389 49.5914 16.5061 49.8739 16.7145 50.0823L29.8945 63.2623C30.1028 63.4707 30.3854 63.5878 30.68 63.5878H49.32C49.6147 63.5878 49.8973 63.4707 50.1056 63.2623L63.2856 50.0823C63.494 49.8739 63.6111 49.5914 63.6111 49.2967V30.6567C63.6111 30.362 63.494 30.0795 63.2856 29.8712L50.1056 16.6912C49.8973 16.4828 49.6147 16.3668 49.32 16.3667Z" stroke="black" stroke-width="0.5" stroke-miterlimit="10" stroke-linecap="round" stroke-linejoin="round"/>
<path d="M29.05 37.66C28.8222 36.7745 27.8378 36.1078 26.6578 36.1078C25.3089 36.1078 24.2156 36.9778 24.2156 38.0522C24.2156 39.1256 25.3089 39.9967 26.6578 39.9967L26.6078 40.0033C27.9567 40.0033 29.05 40.8745 29.05 41.9478C29.05 43.0211 27.9567 43.8922 26.6078 43.8922C25.4278 43.8922 24.4434 43.2256 24.2156 42.34M32.94 36.1111H37.3845M35.1622 36.1111V43.8889M50.8822 43.8889V36.1111H53.8478C54.9178 36.1111 55.7845 36.9778 55.7845 38.0489C55.7845 39.1178 54.9178 39.9856 53.8478 39.9856H50.8811M43.6922 43.8889C42.9555 43.8889 42.249 43.5962 41.7281 43.0753C41.2071 42.5544 40.9145 41.8478 40.9145 41.1111V38.8889C40.9145 38.1522 41.2071 37.4456 41.7281 36.9247C42.249 36.4038 42.9555 36.1111 43.6922 36.1111C44.057 36.1111 44.4182 36.183 44.7553 36.3226C45.0923 36.4622 45.3985 36.6668 45.6564 36.9247C45.9144 37.1827 46.119 37.4889 46.2586 37.8259C46.3982 38.1629 46.47 38.5241 46.47 38.8889V41.1111C46.47 41.4759 46.3982 41.8371 46.2586 42.1741C46.119 42.5111 45.9144 42.8174 45.6564 43.0753C45.3985 43.3332 45.0923 43.5379 44.7553 43.6775C44.4182 43.817 44.057 43.8889 43.6922 43.8889Z" stroke="black" stroke-width="0.5" stroke-miterlimit="10" stroke-linecap="round" stroke-linejoin="round"/>
<path d="M51.0456 12.2H28.9556C28.6611 12.1997 28.3786 12.3164 28.1701 12.5244L12.5478 28.1455C12.3399 28.354 12.2232 28.6366 12.2234 28.9311V51.0222C12.2235 51.3168 12.3406 51.5994 12.5489 51.8077L28.1701 67.43C28.3786 67.6379 28.6611 67.7546 28.9556 67.7544H51.0445C51.3392 67.7543 51.6217 67.6372 51.8301 67.4288L67.4523 51.8077C67.6607 51.5994 67.7778 51.3168 67.7778 51.0222V28.9311C67.7778 28.6364 67.6607 28.3538 67.4523 28.1455L51.8312 12.5244C51.6228 12.316 51.3403 12.2 51.0456 12.2Z" fill="#D22F27"/>
<path d="M49.32 16.3667H30.68C30.3855 16.3665 30.103 16.4832 29.8945 16.6912L16.7145 29.8712C16.5061 30.0795 16.389 30.362 16.3889 30.6567V49.2967C16.389 49.5914 16.5061 49.8739 16.7145 50.0823L29.8945 63.2623C30.1028 63.4707 30.3854 63.5878 30.68 63.5878H49.32C49.6147 63.5878 49.8973 63.4707 50.1056 63.2623L63.2856 50.0823C63.494 49.8739 63.6111 49.5914 63.6111 49.2967V30.6567C63.6111 30.362 63.494 30.0795 63.2856 29.8712L50.1056 16.6912C49.8973 16.4828 49.6147 16.3668 49.32 16.3667Z" stroke="white" stroke-width="0.5" stroke-miterlimit="10" stroke-linecap="round" stroke-linejoin="round"/>
<path d="M29.05 37.66C28.8222 36.7745 27.8378 36.1078 26.6578 36.1078C25.3089 36.1078 24.2156 36.9778 24.2156 38.0522C24.2156 39.1256 25.3089 39.9967 26.6578 39.9967L26.6078 40.0033C27.9567 40.0033 29.05 40.8745 29.05 41.9478C29.05 43.0211 27.9567 43.8922 26.6078 43.8922C25.4278 43.8922 24.4434 43.2256 24.2156 42.34M32.94 36.1111H37.3845M35.1622 36.1111V43.8889M50.8822 43.8889V36.1111H53.8478C54.9178 36.1111 55.7845 36.9778 55.7845 38.0489C55.7845 39.1178 54.9178 39.9856 53.8478 39.9856H50.8811M43.6922 43.8889C42.9555 43.8889 42.249 43.5962 41.7281 43.0753C41.2071 42.5544 40.9145 41.8478 40.9145 41.1111V38.8889C40.9145 38.1522 41.2071 37.4456 41.7281 36.9247C42.249 36.4038 42.9555 36.1111 43.6922 36.1111C44.057 36.1111 44.4182 36.183 44.7553 36.3226C45.0923 36.4622 45.3985 36.6668 45.6564 36.9247C45.9144 37.1827 46.119 37.4889 46.2586 37.8259C46.3982 38.1629 46.47 38.5241 46.47 38.8889V41.1111C46.47 41.4759 46.3982 41.8371 46.2586 42.1741C46.119 42.5111 45.9144 42.8174 45.6564 43.0753C45.3985 43.3332 45.0923 43.5379 44.7553 43.6775C44.4182 43.817 44.057 43.8889 43.6922 43.8889Z" stroke="white" stroke-width="2" stroke-miterlimit="10" stroke-linecap="round" stroke-linejoin="round"/>
<path d="M51.0456 12.2H28.9556C28.6611 12.1997 28.3786 12.3164 28.1701 12.5244L12.5478 28.1455C12.3399 28.354 12.2232 28.6366 12.2234 28.9311V51.0222C12.2235 51.3168 12.3406 51.5994 12.5489 51.8077L28.1701 67.43C28.3786 67.6379 28.6611 67.7546 28.9556 67.7544H51.0445C51.3392 67.7543 51.6217 67.6372 51.8301 67.4289L67.4523 51.8077C67.6607 51.5994 67.7778 51.3168 67.7778 51.0222V28.9311C67.7778 28.6364 67.6607 28.3538 67.4523 28.1455L51.8312 12.5244C51.6228 12.316 51.3403 12.2 51.0456 12.2Z" stroke="black" stroke-width="0.5" stroke-miterlimit="10" stroke-linecap="round" stroke-linejoin="round"/>
</svg>
